<?xml version="1.0" standalone="no"?>
<!DOCTYPE svg PUBLIC "-//W3C//DTD SVG 20010904//EN"
 "http://www.w3.org/TR/2001/REC-SVG-20010904/DTD/svg10.dtd">
<svg version="1.0" xmlns="http://www.w3.org/2000/svg"
 width="270.000000pt" height="270.000000pt" viewBox="0 0 270.000000 270.000000"
 preserveAspectRatio="xMidYMid meet">
<metadata>
Created by potrace 1.14, written by Peter Selinger 2001-2017
</metadata>
<g transform="translate(0.000000,270.000000) scale(0.100000,-0.100000)"
fill="#000000" stroke="none">
<path d="M849 2465 c-125 -40 -210 -210 -195 -390 10 -130 60 -239 145 -318
63 -59 110 -80 181 -80 68 0 122 26 174 84 50 55 74 111 88 207 42 285 -180
564 -393 497z"/>
<path d="M1685 2457 c-67 -32 -148 -121 -189 -207 -103 -214 -52 -478 108
-562 61 -33 155 -31 221 4 147 76 243 271 232 472 -4 78 -9 98 -43 164 -30 59
-50 84 -89 111 -43 32 -57 36 -120 39 -57 2 -79 -1 -120 -21z"/>
<path d="M270 1838 c-51 -27 -104 -97 -121 -161 -6 -23 -9 -81 -7 -128 3 -72
9 -97 40 -160 41 -88 81 -136 146 -178 138 -88 287 -46 351 100 62 139 18 334
-101 452 -67 67 -116 90 -198 95 -54 3 -73 -1 -110 -20z"/>
<path d="M2269 1846 c-94 -33 -183 -119 -232 -224 -40 -86 -50 -224 -22 -299
73 -192 291 -212 448 -43 176 190 166 477 -18 561 -47 22 -124 24 -176 5z"/>
<path d="M1216 1575 c-94 -36 -149 -94 -351 -375 -33 -45 -107 -131 -165 -189
-164 -167 -214 -267 -214 -436 -1 -88 2 -107 26 -157 33 -72 103 -147 165
-178 39 -20 66 -26 143 -28 86 -3 111 1 255 39 221 59 296 58 520 -1 211 -55
291 -58 387 -13 183 86 261 277 195 473 -39 116 -72 165 -197 295 -88 91 -143
160 -223 281 -162 245 -231 296 -407 301 -66 2 -107 -2 -134 -12z"/>
</g>
</svg>
