<svg viewBox="0 0 162 40" fill="none" xmlns="http://www.w3.org/2000/svg">
<g clip-path="url(#clip0_122_127)">
<path fill-rule="evenodd" clip-rule="evenodd" d="M12.1439 39.5444C11.9731 39.5325 11.8019 39.523 11.6312 39.5074C10.6745 39.4168 9.79734 39.1025 9.01845 38.5341C7.67468 37.5532 6.81536 36.249 6.47295 34.6077C6.34501 33.9909 6.30926 33.3684 6.3483 32.7402C6.39252 32.003 6.53832 31.2881 6.77067 30.5888C7.14178 29.4728 7.70149 28.4601 8.40983 27.5267C8.94367 26.8231 9.54806 26.1859 10.2141 25.608C10.8373 25.0666 11.4031 24.4688 11.9332 23.8359C12.6001 23.038 13.2036 22.1922 13.7995 21.3407C14.3263 20.5879 14.8441 19.8303 15.4034 19.1025C15.8239 18.5536 16.2674 18.0249 16.7617 17.5418C17.3802 16.9383 18.0627 16.4273 18.867 16.0959C19.4704 15.847 20.0974 15.7152 20.7498 15.7014C21.4873 15.6844 22.2158 15.7578 22.9331 15.9347C24.0309 16.2063 24.9819 16.7444 25.8008 17.5276C26.361 18.0657 26.8351 18.6744 27.2758 19.3116C27.7433 19.9872 28.1728 20.6874 28.6158 21.3796C29.1153 22.159 29.6308 22.9261 30.207 23.6514C30.7808 24.3744 31.4139 25.0415 32.1053 25.6516C32.9416 26.3898 33.6838 27.2114 34.3159 28.134C34.855 28.9252 35.2943 29.7667 35.6009 30.676C35.8399 31.3843 35.9899 32.1087 36.028 32.8573C36.0868 33.9942 35.8921 35.0813 35.3803 36.1039C34.9067 37.0516 34.2209 37.8125 33.3597 38.417C32.7266 38.8612 32.0437 39.1987 31.2916 39.3865C31.0254 39.4538 30.755 39.5022 30.4817 39.5287C30.4436 39.5325 30.4069 39.5396 30.3702 39.5453C30.3345 39.5657 30.295 39.5505 30.2573 39.5553C30.2263 39.5595 30.1934 39.5453 30.1637 39.5652C29.9304 39.5652 29.6962 39.5652 29.4629 39.5652C29.4352 39.5448 29.4037 39.5591 29.374 39.5553C29.3467 39.5553 29.3209 39.5553 29.2941 39.5553C29.272 39.5553 29.248 39.5553 29.2263 39.5553C28.6285 39.5358 28.0481 39.4102 27.4696 39.2751C26.4894 39.0447 25.5285 38.7417 24.5535 38.4914C23.7638 38.2894 22.9675 38.1254 22.1571 38.032C21.5955 37.9671 21.0325 37.96 20.4709 37.9794C20.0217 37.9946 19.5758 38.0642 19.1341 38.1472C18.2621 38.3127 17.4075 38.5492 16.5524 38.7844C15.648 39.0347 14.7435 39.2836 13.8174 39.4363C13.4406 39.4974 13.0634 39.55 12.6805 39.5463C12.602 39.5453 12.5239 39.5572 12.4444 39.5553C12.3433 39.5496 12.2436 39.5676 12.1439 39.5444Z" fill="none"/>
<path fill-rule="evenodd" clip-rule="evenodd" d="M29.4229 0.451851C30.6835 0.604508 31.6463 1.25022 32.3819 2.26856C32.8861 2.9669 33.2031 3.75009 33.3997 4.58734C33.5676 5.30843 33.6311 6.04042 33.6071 6.78095C33.5629 8.14159 33.2459 9.43396 32.6599 10.66C32.2539 11.5095 31.73 12.2757 31.0621 12.9365C30.4671 13.5239 29.794 13.9933 29.0086 14.2858C28.4569 14.4911 27.8896 14.5925 27.3017 14.5574C26.2839 14.4982 25.4198 14.0905 24.6936 13.3784C24.0746 12.7706 23.6527 12.0358 23.3607 11.2222C23.1565 10.6533 23.0291 10.0669 22.9628 9.46714C22.9167 9.05611 22.8983 8.6446 22.9115 8.23309C22.9416 7.26168 23.1147 6.31587 23.4279 5.39756C23.7605 4.41998 24.2317 3.51874 24.8752 2.71278C25.4165 2.03484 26.0492 1.46166 26.8083 1.0383C27.3661 0.726823 27.9602 0.525335 28.5961 0.452799C28.6154 0.441895 28.6365 0.446636 28.6563 0.445214C28.6765 0.445214 28.6967 0.445214 28.7165 0.445214C28.7456 0.441421 28.7767 0.455644 28.8026 0.434784C28.9413 0.434784 29.0777 0.434784 29.2155 0.434784C29.2423 0.456118 29.2724 0.441895 29.3016 0.445214C29.3223 0.445214 29.3416 0.445214 29.3623 0.445214C29.3815 0.445688 29.4032 0.440473 29.4229 0.451851Z" fill="none"/>
<path fill-rule="evenodd" clip-rule="evenodd" d="M0.429944 15.4544C0.449698 15.0666 0.518839 14.6859 0.619963 14.3114C0.815626 13.5837 1.13593 12.9204 1.63497 12.3525C2.1928 11.7186 2.88232 11.3085 3.70825 11.1431C4.37896 11.0094 5.04073 11.0667 5.69122 11.2687C6.43907 11.5015 7.10037 11.8973 7.6883 12.4127C8.60171 13.2106 9.25643 14.1924 9.70985 15.316C9.9469 15.9043 10.1111 16.5135 10.2018 17.1417C10.246 17.4466 10.2672 17.7533 10.2733 18.0614C10.2841 18.6465 10.2258 19.222 10.0819 19.7881C9.88999 20.5433 9.56686 21.2307 9.05183 21.8191C8.46061 22.4942 7.72358 22.9142 6.84027 23.0588C6.19214 23.165 5.55482 23.0934 4.93114 22.8905C4.09252 22.616 3.37383 22.1448 2.74075 21.5346C2.12319 20.9411 1.63262 20.2517 1.25022 19.4851C0.87536 18.7332 0.61667 17.9406 0.492029 17.1066C0.470393 16.9592 0.45252 16.8117 0.432766 16.6648C0.417244 16.5975 0.423359 16.5287 0.407367 16.4619C0.399842 16.4339 0.404075 16.4073 0.402664 16.3784C0.39749 16.3429 0.413482 16.3049 0.391846 16.2694C0.391846 16.0892 0.391846 15.9096 0.391846 15.7289C0.42524 15.6796 0.408778 15.6246 0.412541 15.572C0.415363 15.5327 0.405486 15.4909 0.429944 15.4544Z" fill="none"/>
<path fill-rule="evenodd" clip-rule="evenodd" d="M9.27996 6.78522C9.28419 5.71235 9.43564 4.74473 9.7917 3.81362C10.0603 3.1096 10.429 2.46578 10.9426 1.91157C11.4957 1.31327 12.1528 0.884216 12.9453 0.682254C13.7379 0.479343 14.5168 0.537182 15.2825 0.816421C15.957 1.06295 16.5454 1.4517 17.0679 1.94239C17.9023 2.72464 18.4996 3.66902 18.9253 4.72767C19.1958 5.40087 19.382 6.09684 19.4883 6.81413C19.5485 7.2209 19.5833 7.63099 19.5918 8.04392C19.6007 8.56353 19.5683 9.08123 19.4831 9.5942C19.3063 10.6661 18.9455 11.6645 18.3021 12.5473C17.9018 13.0949 17.416 13.5476 16.8196 13.8738C16.1531 14.2379 15.4396 14.3901 14.6847 14.3313C14.0022 14.2787 13.3729 14.054 12.7859 13.7031C12.0202 13.2461 11.4003 12.6298 10.8843 11.9044C10.2724 11.043 9.8519 10.0906 9.58568 9.06701C9.43988 8.50711 9.34675 7.93773 9.30442 7.36029C9.28748 7.14363 9.2729 6.92555 9.27996 6.78522Z" fill="none"/>
<path fill-rule="evenodd" clip-rule="evenodd" d="M42.7219 16.0831C42.7219 16.1243 42.7219 16.166 42.7219 16.2078C42.6749 17.2422 42.4002 18.216 41.9567 19.1447C41.6077 19.8725 41.1623 20.5357 40.611 21.1236C39.9036 21.8793 39.0829 22.4686 38.1069 22.8223C37.5223 23.0342 36.9202 23.1385 36.298 23.1039C35.3794 23.0517 34.5774 22.7161 33.903 22.0846C33.3461 21.5626 32.9787 20.9207 32.7473 20.1982C32.539 19.5506 32.4548 18.883 32.4759 18.2032C32.5216 16.7084 32.9905 15.3497 33.8028 14.1061C34.077 13.6851 34.3917 13.2964 34.7444 12.9408C35.4702 12.2121 36.2998 11.6518 37.2824 11.3341C37.8412 11.1549 38.4122 11.0729 38.9973 11.1189C39.8909 11.1886 40.6703 11.5294 41.3241 12.151C41.9139 12.7118 42.2859 13.4045 42.5108 14.182C42.6349 14.6115 42.7074 15.051 42.7219 15.499C42.7219 15.5407 42.7219 15.5829 42.7219 15.6246C42.7172 15.7773 42.7177 15.9299 42.7219 16.0831Z" fill="none"/>
<path d="M64.3214 23.0114H60.3998L57.0768 17.5018V23.0114H53.7712V10.1558H58.6558C61.7099 10.1558 62.9245 11.9224 62.9245 14.1262C62.9245 15.9365 61.866 16.9947 60.339 17.327L64.3214 23.0114ZM59.7753 14.161C59.7753 13.374 59.3328 12.8755 58.1094 12.8755H57.077V15.4553H58.1094C59.3328 15.4553 59.7753 14.9481 59.7753 14.161ZM74.5075 23.0114L73.6833 20.6327H68.5818L67.7663 23.0114H64.4086L69.1022 10.1558H73.1714L77.865 23.0114H74.5073H74.5075ZM69.5273 17.8868H72.7376L71.1324 13.2342L69.5273 17.8868ZM87.6519 10.1558H91.1744L86.4457 23.0114H82.7322L78.0386 10.1558H81.5611L84.6065 19.1898L87.6519 10.1558ZM101.482 10.1558H104.787V23.0114H100.857L95.9898 14.6683V23.0114H92.6841V10.1558H96.5711L101.482 18.455V10.1558ZM113.394 23.1864C109.542 23.1864 106.774 20.554 106.774 16.5837C106.774 12.5871 109.542 9.97205 113.394 9.97205C117.255 9.97205 120.023 12.5869 120.023 16.5837C120.023 20.5541 117.255 23.1864 113.394 23.1864ZM113.394 20.1605C115.32 20.1605 116.76 18.7875 116.76 16.5836C116.76 14.3798 115.32 12.9981 113.394 12.9981C111.477 12.9981 110.054 14.3798 110.054 16.5836C110.054 18.7875 111.477 20.1605 113.394 20.1605ZM130.087 9.04536L128.031 6.41302H129.914L130.972 7.59363L132.04 6.41302H133.922L131.866 9.04536H130.087ZM131.059 23.1864C128.265 23.1864 125.992 21.8309 125.636 19.251L129.063 18.4639C129.159 19.8631 130.026 20.519 131.198 20.519C132.048 20.519 132.569 20.108 132.569 19.3734C132.569 18.4114 131.345 18.0528 129.922 17.5631C128.126 16.9596 126.114 16.2076 126.114 13.8376C126.114 11.4414 128.04 9.97215 130.79 9.97215C133.028 9.97215 135.466 10.8642 135.996 13.5228L132.82 14.3098C132.638 13.1467 132.031 12.6395 131.007 12.6395C130.096 12.6395 129.454 12.998 129.454 13.7501C129.454 14.4673 130.599 14.7558 131.909 15.1844C133.74 15.7965 135.996 16.6361 135.996 19.181C135.996 22.0057 133.636 23.1863 131.059 23.1863V23.1864ZM145.913 10.1558V13.0505H143.032V23.0114H139.761V13.0505H136.872V10.1558H145.913ZM147.587 23.0114V10.1558H150.893V23.0114H147.587ZM161.608 10.1558V13.0505H158.727V23.0114H155.457V13.0505H152.567V10.1558H161.608Z" fill="none"/>
<path d="M56.6317 32.6374C56.6317 32.9312 56.6659 33.2311 56.7001 33.3627V33.4576H55.7513L55.6886 33.124C55.4749 33.4055 55.0675 33.5188 54.7228 33.5188C54.2612 33.5188 53.7712 33.3137 53.7712 32.619C53.7712 31.9335 54.2498 31.7162 54.8567 31.551L55.3411 31.4194C55.5747 31.3582 55.6459 31.2878 55.6459 31.1685C55.6459 30.945 55.4066 30.8991 55.2299 30.8991C54.9564 30.8991 54.7655 31.0063 54.7114 31.3398L53.7968 31.1776C53.9421 30.4677 54.4094 30.1555 55.2955 30.1555C55.9023 30.1555 56.6317 30.2993 56.6317 31.3521V32.6374ZM55.0562 32.7873C55.3297 32.7873 55.703 32.5486 55.703 32.0467L55.022 32.2916C54.8881 32.3405 54.757 32.3987 54.757 32.5425C54.757 32.6986 54.8938 32.7873 55.0562 32.7873ZM60.0537 30.1555C60.84 30.1555 61.2247 30.5687 61.2247 31.2756V33.4576H60.1819V31.5143C60.1819 31.1562 59.9654 31.0369 59.7146 31.0369C59.404 31.0369 59.0964 31.1777 59.0906 31.7652V33.4576H58.0507V30.2167H59.0906V30.5502C59.3129 30.3024 59.6462 30.1555 60.0537 30.1555ZM63.1678 29.9045C62.8516 29.9045 62.5951 29.6352 62.5951 29.2955C62.5951 28.965 62.8516 28.6957 63.1678 28.6957C63.4698 28.6957 63.7263 28.965 63.7263 29.2955C63.7263 29.6352 63.4698 29.9045 63.1678 29.9045ZM62.6379 33.4576V30.2166H63.6835V33.4576H62.6379ZM69.0287 30.1555C69.7239 30.1555 70.1484 30.4983 70.1484 31.1563V33.4576H69.1113V31.4837C69.1113 31.1685 68.9176 31.0369 68.701 31.0369C68.4389 31.0369 68.1768 31.1838 68.1768 31.7408V33.4576H67.1254V31.4837C67.1254 31.1685 66.9402 31.0369 66.7123 31.0369C66.4559 31.0369 66.1881 31.1838 66.1881 31.802V33.4576H65.1538V30.2167H66.1881V30.5809C66.4018 30.3054 66.7151 30.1555 67.0913 30.1555C67.5642 30.1555 67.9004 30.3177 68.0657 30.6176C68.2907 30.3054 68.6241 30.1555 69.0287 30.1555ZM74.2168 32.6374C74.2168 32.9312 74.251 33.2311 74.2852 33.3627V33.4576H73.3364L73.2737 33.124C73.0601 33.4055 72.6526 33.5188 72.3079 33.5188C71.8463 33.5188 71.3563 33.3137 71.3563 32.619C71.3563 31.9335 71.8349 31.7162 72.4418 31.551L72.9262 31.4194C73.1598 31.3582 73.231 31.2878 73.231 31.1685C73.231 30.945 72.9917 30.8991 72.815 30.8991C72.5415 30.8991 72.3506 31.0063 72.2965 31.3398L71.3819 31.1776C71.5272 30.4677 71.9945 30.1555 72.8806 30.1555C73.4875 30.1555 74.2168 30.2993 74.2168 31.3521V32.6374ZM72.6413 32.7873C72.9148 32.7873 73.2881 32.5486 73.2881 32.0467L72.6071 32.2916C72.4732 32.3405 72.3422 32.3987 72.3422 32.5425C72.3422 32.6986 72.4789 32.7873 72.6413 32.7873ZM75.6358 33.4576V28.7569H76.6872V33.4576H75.6358ZM82.2772 30.1555C83.0807 30.1555 83.7531 30.7676 83.7531 31.8479C83.7531 32.9251 83.0807 33.5402 82.2772 33.5402C81.9268 33.5402 81.6105 33.4239 81.4367 33.2005V35H80.3968V30.2166H81.3769L81.3997 30.5441C81.5621 30.287 81.9012 30.1554 82.2772 30.1554V30.1555ZM82.0322 32.6251C82.4169 32.6251 82.7132 32.3405 82.7132 31.8478C82.7132 31.3521 82.4169 31.0705 82.0322 31.0705C81.6448 31.0705 81.3484 31.352 81.3484 31.8478C81.3484 32.3405 81.6447 32.6251 82.0322 32.6251ZM85.9812 30.7033C86.1379 30.4462 86.5424 30.18 86.9841 30.18V31.1562C86.3145 31.1562 86.041 31.3153 86.041 31.9733V33.4575H84.9897V30.2166H85.9812V30.7032V30.7033ZM89.611 33.5188C88.591 33.5188 87.8787 32.9067 87.8787 31.8356C87.8787 30.7675 88.5853 30.1555 89.611 30.1555C90.6453 30.1555 91.3519 30.7675 91.3519 31.8356C91.3519 32.9067 90.6396 33.5188 89.611 33.5188ZM89.5996 32.6496C90.0441 32.6496 90.3176 32.3161 90.3176 31.8356C90.3176 31.352 90.0441 31.0185 89.5996 31.0185C89.1808 31.0185 88.913 31.3521 88.913 31.8356C88.913 32.3161 89.1808 32.6496 89.5996 32.6496ZM93.7965 33.4576C93.1554 33.4576 92.805 33.0628 92.805 32.3681V31.0644H92.2266V30.2167H92.3975C92.7167 30.2167 92.9332 30.0912 92.9332 29.5281V29.1945H93.862V30.2166H94.4376V31.0643H93.862V32.2426C93.862 32.518 93.9646 32.6251 94.1697 32.6251H94.4376V33.4575H93.7965V33.4576ZM98.7028 31.8019L98.6914 32.059H96.5374C96.5801 32.463 96.8508 32.6558 97.1813 32.6558C97.4377 32.6558 97.6257 32.5486 97.7112 32.31L98.6686 32.4415C98.4834 33.1393 97.9107 33.5188 97.187 33.5188C96.147 33.5188 95.506 32.9067 95.506 31.8417C95.506 30.7676 96.1727 30.1494 97.1528 30.1494C98.0332 30.1494 98.6971 30.6359 98.7028 31.8019ZM97.1585 30.9206C96.8451 30.9206 96.6428 31.043 96.5658 31.3521H97.6827C97.6257 31.0675 97.4206 30.9206 97.1585 30.9206ZM101.39 33.5188C100.387 33.5188 99.7028 32.8363 99.7028 31.8356C99.7028 30.8318 100.387 30.1555 101.39 30.1555C102.213 30.1555 102.808 30.5992 102.931 31.4194L101.974 31.5143C101.908 31.1623 101.697 31.0185 101.378 31.0185C100.982 31.0185 100.743 31.3521 100.743 31.8356C100.743 32.3161 100.982 32.6497 101.378 32.6497C101.697 32.6497 101.908 32.5058 101.974 32.1539L102.931 32.2488C102.808 33.0689 102.187 33.5188 101.39 33.5188ZM105.364 33.4576C104.723 33.4576 104.373 33.0628 104.373 32.3681V31.0644H103.794V30.2167H103.965C104.284 30.2167 104.501 30.0912 104.501 29.5281V29.1945H105.43V30.2166H106.005V31.0643H105.43V32.2426C105.43 32.518 105.532 32.6251 105.737 32.6251H106.005V33.4575H105.364V33.4576ZM107.843 29.9045C107.527 29.9045 107.27 29.6352 107.27 29.2955C107.27 28.965 107.527 28.6957 107.843 28.6957C108.145 28.6957 108.401 28.965 108.401 29.2955C108.401 29.6352 108.145 29.9045 107.843 29.9045ZM107.313 33.4576V30.2166H108.359V33.4576H107.313ZM111.316 33.5188C110.296 33.5188 109.584 32.9067 109.584 31.8356C109.584 30.7675 110.29 30.1555 111.316 30.1555C112.35 30.1555 113.057 30.7675 113.057 31.8356C113.057 32.9067 112.345 33.5188 111.316 33.5188ZM111.305 32.6496C111.749 32.6496 112.023 32.3161 112.023 31.8356C112.023 31.352 111.749 31.0185 111.305 31.0185C110.886 31.0185 110.618 31.3521 110.618 31.8356C110.618 32.3161 110.886 32.6496 111.305 32.6496ZM116.285 30.1555C117.071 30.1555 117.456 30.5687 117.456 31.2756V33.4576H116.413V31.5143C116.413 31.1562 116.197 31.0369 115.946 31.0369C115.635 31.0369 115.328 31.1777 115.322 31.7652V33.4576H114.282V30.2167H115.322V30.5502C115.544 30.3024 115.878 30.1555 116.285 30.1555ZM123.758 32.6374C123.758 32.9312 123.793 33.2311 123.827 33.3627V33.4576H122.878L122.815 33.124C122.602 33.4055 122.194 33.5188 121.849 33.5188C121.388 33.5188 120.898 33.3137 120.898 32.619C120.898 31.9335 121.376 31.7162 121.983 31.551L122.468 31.4194C122.701 31.3582 122.773 31.2878 122.773 31.1685C122.773 30.945 122.533 30.8991 122.357 30.8991C122.083 30.8991 121.892 31.0063 121.838 31.3398L120.923 31.1776C121.069 30.4677 121.536 30.1555 122.422 30.1555C123.029 30.1555 123.758 30.2993 123.758 31.3521V32.6374ZM122.183 32.7873C122.456 32.7873 122.83 32.5486 122.83 32.0467L122.149 32.2916C122.015 32.3405 121.884 32.3987 121.884 32.5425C121.884 32.6986 122.02 32.7873 122.183 32.7873ZM126.303 33.5188C125.605 33.5188 125.049 33.2495 124.932 32.619L125.79 32.362C125.895 32.6802 126.089 32.7629 126.308 32.7629C126.462 32.7629 126.63 32.7231 126.63 32.5486C126.63 32.2426 126.106 32.2426 125.633 32.0406C125.306 31.9029 125.003 31.6765 125.003 31.1562C125.003 30.4738 125.533 30.1555 126.257 30.1555C126.864 30.1555 127.377 30.3789 127.505 31.0185L126.719 31.2021C126.613 30.9511 126.468 30.8746 126.257 30.8746C126.069 30.8746 125.941 30.9328 125.941 31.0521C125.941 31.2449 126.286 31.2755 126.659 31.3888C127.12 31.5265 127.628 31.7713 127.628 32.4721C127.628 33.2494 126.998 33.5187 126.303 33.5187V33.5188ZM129.944 33.5188C129.246 33.5188 128.69 33.2495 128.574 32.619L129.431 32.362C129.537 32.6802 129.73 32.7629 129.95 32.7629C130.104 32.7629 130.272 32.7231 130.272 32.5486C130.272 32.2426 129.747 32.2426 129.274 32.0406C128.947 31.9029 128.645 31.6765 128.645 31.1562C128.645 30.4738 129.175 30.1555 129.898 30.1555C130.505 30.1555 131.018 30.3789 131.146 31.0185L130.36 31.2021C130.255 30.9511 130.109 30.8746 129.898 30.8746C129.71 30.8746 129.582 30.9328 129.582 31.0521C129.582 31.2449 129.927 31.2755 130.3 31.3888C130.762 31.5265 131.269 31.7713 131.269 32.4721C131.269 33.2494 130.639 33.5187 129.944 33.5187V33.5188ZM133.947 33.5188C132.927 33.5188 132.215 32.9067 132.215 31.8356C132.215 30.7675 132.921 30.1555 133.947 30.1555C134.981 30.1555 135.688 30.7675 135.688 31.8356C135.688 32.9067 134.976 33.5188 133.947 33.5188ZM133.936 32.6496C134.38 32.6496 134.654 32.3161 134.654 31.8356C134.654 31.352 134.38 31.0185 133.936 31.0185C133.517 31.0185 133.249 31.3521 133.249 31.8356C133.249 32.3161 133.517 32.6496 133.936 32.6496ZM138.349 33.5188C137.346 33.5188 136.662 32.8363 136.662 31.8356C136.662 30.8318 137.346 30.1555 138.349 30.1555C139.172 30.1555 139.768 30.5992 139.89 31.4194L138.933 31.5143C138.868 31.1623 138.657 31.0185 138.338 31.0185C137.942 31.0185 137.702 31.3521 137.702 31.8356C137.702 32.3161 137.942 32.6497 138.338 32.6497C138.657 32.6497 138.868 32.5058 138.933 32.1539L139.89 32.2488C139.768 33.0689 139.147 33.5188 138.349 33.5188ZM141.634 29.9045C141.318 29.9045 141.061 29.6352 141.061 29.2955C141.061 28.965 141.318 28.6957 141.634 28.6957C141.936 28.6957 142.193 28.965 142.193 29.2955C142.193 29.6352 141.936 29.9045 141.634 29.9045ZM141.104 33.4576V30.2166H142.15V33.4576H141.104ZM146.27 32.6374C146.27 32.9312 146.304 33.2311 146.338 33.3627V33.4576H145.389L145.327 33.124C145.113 33.4055 144.705 33.5188 144.361 33.5188C143.899 33.5188 143.409 33.3137 143.409 32.619C143.409 31.9335 143.888 31.7162 144.495 31.551L144.979 31.4194C145.213 31.3582 145.284 31.2878 145.284 31.1685C145.284 30.945 145.045 30.8991 144.868 30.8991C144.594 30.8991 144.403 31.0063 144.349 31.3398L143.435 31.1776C143.58 30.4677 144.047 30.1555 144.933 30.1555C145.54 30.1555 146.27 30.2993 146.27 31.3521V32.6374ZM144.694 32.7873C144.968 32.7873 145.341 32.5486 145.341 32.0467L144.66 32.2916C144.526 32.3405 144.395 32.3987 144.395 32.5425C144.395 32.6986 144.532 32.7873 144.694 32.7873ZM148.908 33.4576C148.267 33.4576 147.917 33.0628 147.917 32.3681V31.0644H147.338V30.2167H147.509C147.828 30.2167 148.045 30.0912 148.045 29.5281V29.1945H148.974V30.2166H149.549V31.0643H148.974V32.2426C148.974 32.518 149.076 32.6251 149.281 32.6251H149.549V33.4575H148.908V33.4576ZM151.387 29.9045C151.071 29.9045 150.814 29.6352 150.814 29.2955C150.814 28.965 151.071 28.6957 151.387 28.6957C151.689 28.6957 151.945 28.965 151.945 29.2955C151.945 29.6352 151.689 29.9045 151.387 29.9045ZM150.857 33.4576V30.2166H151.903V33.4576H150.857ZM154.86 33.5188C153.84 33.5188 153.128 32.9067 153.128 31.8356C153.128 30.7675 153.834 30.1555 154.86 30.1555C155.894 30.1555 156.601 30.7675 156.601 31.8356C156.601 32.9067 155.889 33.5188 154.86 33.5188ZM154.849 32.6496C155.293 32.6496 155.567 32.3161 155.567 31.8356C155.567 31.352 155.293 31.0185 154.849 31.0185C154.43 31.0185 154.162 31.3521 154.162 31.8356C154.162 32.3161 154.43 32.6496 154.849 32.6496ZM159.829 30.1555C160.615 30.1555 161 30.5687 161 31.2756V33.4576H159.957V31.5143C159.957 31.1562 159.741 31.0369 159.49 31.0369C159.179 31.0369 158.872 31.1777 158.866 31.7652V33.4576H157.826V30.2167H158.866V30.5502C159.088 30.3024 159.422 30.1555 159.829 30.1555Z" fill="none"/>
</g>
<defs>
<clipPath id="clip0_122_127">
<rect width="162" height="100%" fill="white"/>
</clipPath>
</defs>
</svg>
