<?xml version="1.0" encoding="UTF-8"?><svg id="uuid-07aba2ad-07e6-4710-956b-c114419ffa1d" xmlns="http://www.w3.org/2000/svg" width="78" height="78" viewBox="0 0 78 78"><g id="uuid-2ecabb20-c097-490e-a6cf-627dddd26b0a"><g><rect x="0" y="0" width="78" height="78" rx="38.99996" ry="38.99996" style="fill:#ffbb09;"/><g><g><g><g><path d="M53.67449,61.19053c-.53447,0-1.13819-.04389-1.77701-.09851-.33356-.02926-.74709-.06535-.84949-.05169-.36281,.04877-.72953-.04974-1.02212-.27601-.29259-.2253-.47985-.55105-.52764-.91679l-.16483-1.25717c-.03511-.27406,.15702-.52472,.43011-.5608,.26919-.03901,.52472,.15702,.5608,.43011l.16483,1.25815c.01268,.10241,.06437,.19311,.1463,.25553,.07998,.06242,.18043,.0946,.28284,.07607,.19604-.02633,.50131-.00195,1.06406,.04681,.6359,.05559,2.57091,.2214,2.88301-.08778,.22432-.22237,.34623-.46425,.37159-.73928,.1502-1.5956,1.85211-3.53647,1.92428-3.61839,.18433-.20872,.50033-.22627,.70515-.04389,.20677,.18336,.22627,.49838,.04389,.70515-.43304,.49058-1.58,1.99548-1.67851,3.05077-.04779,.51009-.27114,.96556-.66321,1.3547-.36379,.36086-1.04065,.47302-1.89405,.47302Z" style="fill:#155263;"/><path d="M58.27112,57.91934c-.13947,0-.27894-.03999-.40475-.11801-.25163-.15702-.57543-.51009-.85047-1.86089-.09753-.48083-.32965-.9558-.67199-1.37519-.89826-1.09625-1.70581-2.69185-1.73898-2.75915-.01756-.03316-.03023-.06827-.03901-.10533-.36379-1.48247-.29064-3.0693-.23115-4.34402,.01951-.41841,.03706-.80463,.03706-1.14014-.00098-.43304-.17848-.89923-.52862-1.38396-.24188-.33356-.2526-.77439-.02828-1.1216s.63395-.51886,1.03285-.43401c2.34074,.48668,7.08659,2.91227,7.44063,5.62168,.26236,2.00816-.5686,3.1756-1.17525,4.02705-.32185,.45352-.57738,.81243-.58909,1.15477-.04974,1.4142-1.08064,3.5589-2.0657,3.81541-.06242,.0156-.12484,.02341-.18726,.02341Zm-2.74939-6.51214c.1424,.27406,.85047,1.61706,1.59463,2.52605,.44572,.54422,.74904,1.17037,.87875,1.80822,.13167,.64956,.26138,.96556,.33843,1.1099,.41646-.35014,1.15477-1.73117,1.19183-2.80596,.02341-.64273,.38817-1.15477,.77439-1.69801,.56665-.79683,1.20938-1.69996,.99774-3.31995-.26723-2.04717-4.47472-4.31964-6.6516-4.77316,.4818,.65248,.72368,1.31374,.72465,1.96037,.00098,.35014-.01756,.75196-.03804,1.18793-.05559,1.19475-.12484,2.67625,.18921,4.00462Z" style="fill:#155263;"/><path d="M49.60453,59.039c-.91386,0-1.7536-.54227-2.31928-1.02407-.30332-.25846-.49838-.61249-.55007-.99872v-.00195l-.11996-.91874c-.04291-.33746,.0907-.67101,.37549-.93922,.4857-.46132,1.27083-1.03968,2.24516-1.16744,.97043-.12386,1.88235,.23017,2.47241,.55105,.34331,.18628,.55788,.47498,.60274,.81146l.11996,.91972c.04974,.38622-.04779,.77927-.27504,1.10698-.46912,.67589-1.24157,1.50783-2.26174,1.64242-.09753,.01268-.19409,.01853-.28967,.01853Zm-1.87844-2.15543c.01853,.14337,.08973,.27114,.20677,.37062,.38622,.32868,1.14111,.85925,1.83163,.77537,.65833-.08583,1.21719-.711,1.57025-1.22011,.08778-.12581,.12386-.26821,.10533-.40963l-.11996-.91679h0c-.00195,0-.02341-.02926-.08875-.06535-.46132-.25163-1.15964-.53154-1.86577-.43791-.70807,.09265-1.30886,.5413-1.68923,.90119-.06242,.05949-.07022,.0946-.07022,.09558l.11996,.90704Z" style="fill:#155263;"/><g><path d="M45.58236,62.28385c-.28869,0-.53642-.04974-.73636-.16483-.47985-.27699-.81243-.66028-.98994-1.13916-.36769-.99774-1.86089-2.15543-2.40609-2.51825-.2292-.15215-.29162-.4623-.13849-.69247,.15215-.23017,.4623-.28967,.69247-.13849,.0907,.06047,2.23443,1.49905,2.78841,3.00297,.09558,.25748,.27601,.46132,.55202,.6203,.38232,.21262,2.2042-.44084,2.80401-.65541,.53447-.19214,.82219-.29357,1.0192-.3199,.20969-.02731,.35794-.2214,.33063-.43109-.03511-.27406,.158-.52472,.43109-.55983,.27796-.03609,.52374,.15702,.55983,.43109,.09753,.75586-.43791,1.45126-1.19183,1.55074-.10436,.01365-.49643,.15507-.81146,.26821-1.13136,.4067-2.15251,.74611-2.90349,.74611Z" style="fill:#155263;"/><path d="M49.58795,63.46885c-.82023,0-1.61316-.26723-2.27442-.77342l-.84657-.6476c-.21944-.16775-.26041-.48083-.09363-.70027,.16873-.21944,.4818-.26041,.70027-.09363l.84657,.6476c.58323,.44669,1.31179,.63785,2.03254,.54422l.76367-.09948c.72856-.09558,1.37714-.46717,1.8248-1.04748l.65151-.84364c.17068-.21944,.48375-.25651,.70027-.08973,.21847,.16873,.25846,.4818,.08973,.70027l-.65151,.84364c-.60957,.79-1.4932,1.29716-2.48509,1.42785l-.76464,.09948c-.16483,.02146-.32965,.03219-.49351,.03219Z" style="fill:#155263;"/><path d="M41.32416,60.13329c-1.0192,0-2.56262-1.80627-2.97323-3.15707-.09948-.32868-.43791-.60859-.86607-.96458-.80512-.66711-1.90722-1.58195-2.16957-3.59109-.35404-2.70941,3.6101-6.27221,5.74652-7.3431,.36769-.18628,.80365-.12289,1.1099,.1541,.30625,.27796,.40963,.70612,.26138,1.09137-.14727,.38427-.29454,.95093-.15605,1.47369,.08583,.32478,.20189,.69149,.32868,1.09039,.38427,1.21816,.86315,2.73281,.89338,4.25917,.00098,.03804-.00293,.0751-.01073,.11216-.0156,.07412-.38622,1.82285-.97238,3.11318-.22335,.49253-.32575,1.01139-.29747,1.50198,.08193,1.37421-.14044,1.79944-.34331,2.01596-.1463,.15605-.34038,.24188-.54715,.24383h-.0039Zm.17653-14.16831c-1.97939,1.00164-5.4627,4.27868-5.19547,6.32683,.21213,1.61999,1.06455,2.32709,1.817,2.95128,.51301,.42523,.99774,.82804,1.18451,1.44248,.3121,1.02798,1.37957,2.17299,1.8721,2.40609,.03804-.15995,.08193-.49838,.04291-1.15964-.03804-.65151,.0946-1.33422,.38525-1.97305,.48473-1.06894,.82511-2.54848,.89241-2.85083-.03804-1.36446-.4857-2.77963-.84657-3.91977-.13069-.41548-.25163-.7978-.34136-1.13623-.1658-.62712-.10241-1.32935,.18921-2.08716Z" style="fill:#155263;"/><path d="M41.96689,46.6438c-.0907,0-.18238-.02438-.26431-.07607-.23407-.1463-.30527-.45449-.15898-.68759,1.83553-2.9386,5.9962-3.51306,6.17273-3.53647,.1736-.02243,4.34207-.5374,6.873,1.83163,.20091,.18823,.21164,.50423,.02341,.70612-.18726,.20286-.50326,.21164-.70612,.02341-2.18274-2.0423-6.02351-1.5761-6.06154-1.57025-.03804,.00488-3.871,.54032-5.4549,3.07417-.0946,.15215-.25748,.23505-.42328,.23505Z" style="fill:#155263;"/></g></g><g><path d="M50.42769,53.1852c-.10338,0-.20774-.03219-.29747-.09851-.2214-.16385-.26821-.47693-.10338-.69832,.51594-.69637,1.15964-1.11185,1.86186-1.20353,.70222-.0907,1.43078,.1463,2.10667,.68564,.21457,.17165,.25065,.48668,.07802,.70222-.17165,.21554-.4857,.24968-.70222,.07802-.45937-.36672-.92362-.52764-1.35373-.47595-.42719,.05559-.83779,.33551-1.1889,.80853-.09753,.13167-.2487,.20189-.40085,.20189Z" style="fill:#155263;"/><path d="M44.49489,53.95959c-.10338,0-.20774-.03219-.29747-.09851-.2214-.16385-.26821-.47595-.10338-.69832,.51496-.69539,1.15769-1.11185,1.85991-1.20353,.7071-.09363,1.43175,.1463,2.10764,.68564,.21554,.17165,.25163,.4857,.079,.70125-.17068,.21652-.4857,.25065-.70125,.079-.46035-.36672-.93239-.52862-1.35568-.47595-.42719,.05657-.83779,.33551-1.18793,.80853-.09753,.13167-.2487,.20189-.40085,.20189Z" style="fill:#155263;"/></g></g><g><path d="M37.2303,63.46787c-6.90421,0-12.66341-4.95457-13.69479-11.78173l-.82365-5.45197c-.38769-2.56799,.29357-5.09696,1.91843-7.12073,1.60389-1.99743,3.98365-3.2429,6.5292-3.41651,.12338-.0078,.18336,.01365,.47936,.12191,.79293,.28869,3.20438,1.16647,5.59144,1.16647,2.38658,0,4.79803-.87778,5.58998-1.16647,.29649-.10826,.35989-.12972,.47985-.12191,4.05241,.27601,7.48452,3.24388,8.34572,7.21728,.05852,.26919-.11216,.53447-.38232,.59299-.27309,.05852-.53447-.11314-.59299-.38232-.76172-3.51209-3.77737-6.14249-7.3509-6.42533-.03901,.01463-.09168,.03414-.15702,.05754-.83389,.30332-3.36969,1.22694-5.93231,1.22694-2.56311,0-5.0994-.92362-5.9328-1.22694-.06535-.02341-.1185-.04291-.158-.05754-2.23492,.17751-4.31964,1.28156-5.73043,3.03906-1.44833,1.80335-2.05546,4.05826-1.70923,6.34731l.82365,5.45197c.95629,6.33365,6.30049,10.93126,12.70681,10.93126,2.44461,0,4.82436-.69052,6.88129-1.99743,.2331-.14825,.5413-.079,.68954,.15312,.14825,.2331,.079,.54227-.15312,.68954-2.21785,1.40932-4.78291,2.15348-7.41771,2.15348Z" style="fill:#155263;"/><path d="M29.66386,61.06471c-.25553,0-.47302-.19506-.49692-.45352l-1.26205-13.76063c-.02487-.27504,.17702-.51789,.45157-.54325,.27699-.0156,.51789,.17751,.54325,.45157l1.26205,13.76063c.02487,.27504-.17702,.51789-.45157,.54325-.0156,.00098-.03121,.00195-.04633,.00195Z" style="fill:#155263;"/><path d="M37.2303,41.00554c-3.60377,0-6.53603-2.10179-6.53603-4.68538,0-.27601,.22335-.49936,.49936-.49936s.49936,.22335,.49936,.49936c0,2.03254,2.48411,3.68667,5.53731,3.68667s5.53634-1.65412,5.53634-3.68667c0-.27601,.22335-.49936,.49936-.49936s.49936,.22335,.49936,.49936c0,2.58359-2.93178,4.68538-6.53505,4.68538Z" style="fill:#155263;"/><g><path d="M37.13277,36.04415c-4.15579,0-7.53718-3.38139-7.53718-7.53718,0-.27601,.22335-.49936,.49936-.49936s.49936,.22335,.49936,.49936c0,3.60572,2.93324,6.53847,6.53847,6.53847s6.53798-2.93275,6.53798-6.53847c0-.27601,.22335-.49936,.49936-.49936s.49936,.22335,.49936,.49936c0,4.15579-3.38139,7.53718-7.5367,7.53718Z" style="fill:#155263;"/><g><path d="M44.17011,29.00632c-.27601,0-.49936-.22335-.49936-.49838l-.00195-1.65217c0-.0946,.02731-.18726,.07705-.26723,.0156-.02438,1.56537-2.55433,.98019-6.22247-.06827-.43304-.38525-.84364-.84754-1.10015-.50228-.27796-1.07577-.316-1.57122-.10728-.2526,.10923-.54715-.00975-.65443-.26431-.10826-.25456,.01073-.54715,.26431-.65443,.78122-.33356,1.67363-.27504,2.44607,.15312,.72758,.4028,1.23279,1.08162,1.34983,1.81505,.57543,3.61157-.70612,6.18053-1.04553,6.7823l.00195,1.51563c0,.27601-.22335,.50033-.49838,.50033h-.00098Z" style="fill:#155263;"/><path d="M30.10226,28.84345c-.04486,0-.09022-.00585-.13459-.01853-.15361-.04291-.27796-.15702-.33356-.30722-.02194-.05949-.5491-1.501-1.20646-5.39736-.27552-1.63462-.09119-2.91227,.54812-3.79688,.3594-.49643,.78317-.75781,1.09673-.89241-.00878-1.14111,.46083-2.94446,2.36464-3.65838,.47449-.17799,1.00213-.25163,1.67119-.24041,6.81594,.13947,10.60794,2.36659,10.76594,2.46119,.23602,.14142,.31307,.44767,.17165,.68369-.1424,.237-.44572,.31112-.68467,.1736-.03609-.02243-3.74421-2.18615-10.27341-2.31977-.53544-.01219-.94849,.04535-1.30009,.17702-1.95208,.73246-1.70874,2.92397-1.69752,3.01663,.03267,.26821-.15312,.51496-.41987,.55593-.06827,.01268-1.81505,.36964-1.25766,3.67399,.35989,2.13495,.68125,3.51794,.89338,4.31964,.44425-.74221,1.04846-2.17104,1.26936-4.65515,.01756-.19896,.15117-.36769,.34038-.43011,.18872-.0634,.39695-.0078,.52959,.14142,.07754,.08388,1.98865,2.11252,6.48239,1.44736,.27309-.03414,.52618,.14922,.56617,.42231s-.14873,.52667-.42182,.56665c-3.44186,.50521-5.56706-.44767-6.60528-1.14111-.53203,3.86222-1.98817,5.05795-2.05449,5.10964-.08924,.0712-.19896,.10826-.31015,.10826Z" style="fill:#155263;"/></g><path d="M37.14691,33.52005c-.76952,0-1.53709-.31015-2.21785-.92947-.20384-.18628-.21847-.50228-.03267-.70612,.1858-.20286,.50131-.21749,.70564-.03316,.96604,.88168,2.08472,.89241,3.06881,.02828,.20677-.18141,.52277-.1619,.70466,.04584s.16141,.52277-.04633,.70515c-.67589,.59299-1.43029,.88948-2.18225,.88948Z" style="fill:#155263;"/></g></g></g><path d="M62.63173,43.53452c-.02828,0-.05657-.00195-.08485-.00683-.27114-.04584-.45449-.3043-.40865-.57641,.22042-1.29716,.3316-2.62651,.3316-3.95195,0-8.27062-4.43083-16.02237-11.56228-20.22887-.23798-.14044-.31698-.44669-.17653-.68369,.14044-.23895,.44669-.31502,.68369-.17653,7.43478,4.38596,12.05384,12.46639,12.05384,21.0891,0,1.38104-.11606,2.76695-.34526,4.1197-.04194,.24285-.2526,.41548-.49156,.41548Z" style="fill:#155263;"/><path d="M20.68809,54.96513c-.14191,0-.28284-.06047-.38183-.17653-3.72373-4.40547-5.7748-10.01252-5.7748-15.78927,0-6.99394,3.00346-13.66895,8.24038-18.31337,.20384-.18238,.5213-.16483,.70466,.04194,.18287,.20677,.16434,.52179-.04243,.70515-5.02284,4.45521-7.9039,10.85811-7.9039,17.56628,0,5.54073,1.9672,10.91955,5.53878,15.14362,.17799,.21067,.15166,.52569-.05901,.70417-.09363,.079-.20823,.11801-.32185,.11801Z" style="fill:#155263;"/></g></g></g></svg>