<?xml version="1.0" encoding="UTF-8"?><svg id="uuid-8ecd32e5-e0c9-432f-ba53-144ef2bcdaf0" xmlns="http://www.w3.org/2000/svg" width="48" height="47.88722" viewBox="0 0 48 47.88722"><g id="uuid-055e37b5-c7c7-4f5c-9d4e-19672fb62067"><g><g><path d="M47.51005,20.12688c-.11288,0-.22576-.03827-.31856-.11767L25.65496,1.59607c-.95758-.81935-2.35139-.82079-3.31088,0L.80851,20.00922c-.20472,.17698-.51371,.1521-.69068-.05357-.17602-.20567-.1521-.51467,.05357-.69068L21.70697,.85182c1.32971-1.13695,3.25731-1.13456,4.58511,0l21.53653,18.41314c.20567,.17602,.22959,.48501,.05357,.69068-.09662,.11288-.23437,.17124-.37213,.17124Z" style="fill:#155263;"/><path d="M40.9122,45.00778h-1.97448c-.27073,0-.48979-.21907-.48979-.48979s.21907-.48979,.48979-.48979h1.97448c1.40528,0,2.54845-1.14317,2.54845-2.54845V16.65433c0-.27073,.21907-.48979,.48979-.48979s.48979,.21907,.48979,.48979v24.82541c0,1.94578-1.58226,3.52804-3.52804,3.52804Z" style="fill:#155263;"/><path d="M9.75488,44.71983h-2.66803c-1.94482,0-3.52708-1.58226-3.52708-3.52804V16.65433c0-.27073,.21907-.48979,.48979-.48979s.48979,.21907,.48979,.48979v24.53747c0,1.40528,1.14317,2.54845,2.5475,2.54845h2.66803c.27073,0,.48979,.21907,.48979,.48979s-.21907,.48979-.48979,.48979Z" style="fill:#155263;"/><path d="M41.37999,14.88648c-.27073,0-.48979-.21907-.48979-.48979V4.15313c0-.84661-.68877-1.53539-1.53539-1.53539h-3.33097c-.84757,0-1.53634,.68877-1.53634,1.53539v3.79111c0,.27073-.21907,.48979-.48979,.48979s-.48979-.21907-.48979-.48979v-3.79111c0-1.38711,1.12882-2.51497,2.51593-2.51497h3.33097c1.38711,0,2.51497,1.12786,2.51497,2.51497V14.39669c0,.27073-.21907,.48979-.48979,.48979Z" style="fill:#155263;"/></g><g><g><g><path d="M28.01018,46.71344c-.44579,0-.99106-.09279-1.60331-.20854-.23055-.044-.41613-.08418-.50988-.0861-.27647-.00191-.54528-.09471-.75-.2889s-.32238-.45631-.33004-.73852l-.022-.81505c-.0067-.27073,.20663-.49553,.4764-.50319h.01339c.26499,0,.48214,.21046,.48979,.4764l.022,.81505c.00096,.03635,.04113,.07653,.0794,.07462,.15019,.00096,.33482,.03061,.7146,.10332,.40274,.07557,1.47129,.2822,1.72097,.15689,.11193-.09279,.18463-.20376,.21141-.33769,.20759-1.04559,1.38424-2.15337,1.51721-2.27677,.19898-.18176,.50797-.16932,.69164,.0287,.18367,.19898,.17124,.50893-.02774,.69164-.29751,.27551-1.09629,1.12499-1.22066,1.7468-.07175,.3616-.26403,.6706-.57206,.92027-.2162,.17506-.52327,.24107-.90114,.24107Z" style="fill:#155263;"/><path d="M30.76239,44.90255c-.14349,0-.28412-.04879-.40178-.14062-.2669-.20663-.41135-.6132-.48597-1.36032-.02774-.28603-.13584-.5778-.31186-.84566-.51084-.77487-.92793-1.86255-.94515-1.90847-.01339-.03444-.02296-.06983-.02774-.10619-.13871-.99489,.01435-2.01753,.13775-2.83831,.03922-.26307,.07557-.5051,.09758-.71747,.03061-.30038-.10523-.60937-.22481-.816-.16837-.28986-.14062-.64764,.06983-.90975s.55293-.36639,.87149-.26403c1.50095,.47736,4.44927,2.40305,4.49997,4.23403,.03635,1.36606-.59502,2.08545-1.05612,2.61063-.20854,.23724-.38935,.44196-.41231,.61033-.12245,.88105-.93845,2.32652-1.71236,2.44418-.03253,.00478-.06601,.00765-.09853,.00765Zm-1.21013-4.55259c.0861,.2162,.43527,1.07046,.82748,1.66644,.26403,.39987,.42666,.84566,.47066,1.28953,.01818,.19133,.04113,.33482,.06314,.441,.25733-.30134,.61798-.91262,.68973-1.43016,.06314-.45918,.35969-.79687,.64572-1.12308,.41326-.4697,.83992-.95567,.81313-1.93717-.0287-1.05612-1.97735-2.57237-3.41898-3.17887,.1368,.34343,.18941,.68112,.15593,1.00733-.02296,.22576-.06122,.4831-.10332,.76339-.11097,.74234-.24872,1.66166-.14349,2.50158Z" style="fill:#155263;"/><path d="M25.25414,45.05274c-.55771,0-1.13839-.29751-1.68175-.86383-.20663-.21811-.3243-.49649-.33291-.7873v-.00096l-.01626-.59502c-.0067-.26977,.12627-.52901,.36639-.71364,.36065-.27838,.93271-.61415,1.61-.63329,.63424,0,1.26466,.28507,1.64157,.54336,.25446,.17506,.39796,.42187,.40561,.69451l.01626,.59406c.00861,.29081-.09375,.57685-.28794,.80357-.52519,.61224-1.10586,.94323-1.67697,.95854h-.044Zm-1.03507-1.67984c.00096,.0354,.01244,.08705,.06122,.13871,.35491,.36926,.68303,.55963,.99106,.56154,.28412-.00765,.62468-.22672,.96045-.61702,.0354-.04113,.05357-.08897,.05166-.13775l-.01435-.51849c-.2669-.17985-.68399-.36447-1.04272-.3616-.4037,.01148-.77487,.22959-1.02168,.41613l.01435,.51849Z" style="fill:#155263;"/><g><path d="M22.52584,46.86363c-.30708,0-.56345-.05548-.75765-.19515-.32143-.2315-.53093-.52997-.62276-.88775-.15689-.61415-1.00159-1.41868-1.3144-1.67697-.20854-.17219-.2382-.48118-.06601-.68973,.17411-.20854,.48118-.2382,.68973-.06601,.13967,.11575,1.37659,1.15752,1.63966,2.18972,.03348,.1301,.11384,.24011,.24585,.33482,.24203,.10427,1.29719-.16167,1.6961-.2602,.375-.09279,.56058-.13775,.70599-.14158,.03635-.00096,.07557-.04305,.07462-.0794-.00765-.27073,.20567-.49553,.4764-.50319h.01339c.26499,0,.48214,.21046,.48979,.4764,.00765,.2822-.09471,.55006-.2889,.75573-.1942,.20472-.45631,.32238-.73852,.33004-.08705,.0067-.26977,.05644-.49745,.11288-.67729,.16741-1.27231,.30038-1.74584,.30038Z" style="fill:#155263;"/><path d="M25.05899,47.88627c-.65433,0-1.29623-.25351-1.77072-.70216l-.49745-.46875c-.19707-.18559-.20663-.49553-.02105-.6926s.49553-.20567,.6926-.02105l.4984,.4697c.30421,.2889,.74713,.45057,1.14126,.43431l.49362-.01339c.42666-.01148,.8227-.18846,1.11638-.49649l.47066-.49553c.18559-.19707,.49745-.20185,.6926-.01722,.19611,.18654,.20376,.49649,.01722,.6926l-.47066,.49553c-.47353,.49745-1.11256,.78156-1.79941,.8007l-.49362,.01339c-.02296,0-.04687,.00096-.06983,.00096Z" style="fill:#155263;"/><path d="M19.7985,45.20389c-.02105,0-.04305-.00096-.06409-.00287-.77965-.07653-1.67314-1.47512-1.84342-2.34756-.03157-.16645-.22289-.36065-.44387-.58641-.48979-.49936-1.16039-1.18335-1.1977-2.54941-.0507-1.83098,2.78761-3.91643,4.26081-4.47414,.31186-.11862,.65816-.03348,.88297,.21524,.22576,.25064,.27264,.60554,.12149,.90497-.1081,.21237-.22768,.52997-.17985,.82748,.03253,.21141,.08323,.45248,.1368,.71269,.16741,.81313,.37691,1.82429,.29273,2.82396-.00287,.03635-.01052,.0727-.02105,.1081-.01531,.04687-.37213,1.15656-.84087,1.95821-.16071,.27551-.25255,.57302-.26594,.86192-.03157,.74808-.15402,1.16326-.40944,1.38424-.12149,.10714-.27264,.16358-.42857,.16358Zm.66964-8.87462c-1.4072,.68494-3.26879,2.30547-3.23914,3.36159,.02583,.9815,.47927,1.44355,.9174,1.89029,.30421,.30995,.61798,.63042,.70695,1.08481,.09853,.50701,.4831,1.0896,.76721,1.38233,.01531-.10619,.02966-.24872,.03731-.43527,.02009-.4477,.15784-.90114,.39891-1.31345,.36065-.61607,.66199-1.48851,.73565-1.70949,.05931-.84279-.12819-1.7535-.28029-2.48723-.0574-.27838-.11001-.53475-.14541-.75956-.0507-.32238-.01722-.66199,.1014-1.01402Zm.80835,4.35743h0Z" style="fill:#155263;"/><path d="M21.07751,36.63156c-.10523,0-.21141-.03348-.30038-.10332-.21428-.1655-.25255-.47353-.0861-.68686,1.41294-1.81759,4.18428-1.91325,4.30195-1.91708,.12436,.00287,2.88997-.0574,4.40048,1.67888,.17793,.20376,.15593,.51371-.04783,.69068-.20472,.17889-.51275,.15593-.69068-.04783-1.20248-1.38137-3.60648-1.34406-3.63614-1.34215-.02296,.00096-2.42792,.08897-3.55482,1.53826-.09662,.12436-.24107,.18941-.38648,.18941Z" style="fill:#155263;"/></g></g><g><path d="M26.05005,41.36399c-.11862,0-.23629-.04209-.33004-.12819-.19993-.18272-.21428-.49266-.03157-.69164,.40752-.44579,.88679-.68781,1.38902-.70121,.46492-.04018,.99202,.20089,1.42346,.62468,.19228,.18941,.19515,.49936,.00574,.6926-.1875,.19324-.49745,.19707-.6926,.00574-.16358-.16071-.40752-.34247-.71077-.34439-.28986,.00765-.53571,.21237-.69164,.38265-.09662,.10619-.22863,.15976-.3616,.15976Z" style="fill:#155263;"/><path d="M22.21111,41.46922c-.11862,0-.23629-.04209-.33004-.12819-.19993-.18272-.21428-.49266-.03157-.69164,.40752-.44579,.88775-.68781,1.38902-.70121,.49266-.02679,.99298,.20185,1.4225,.62468,.19324,.18941,.19515,.49936,.00574,.6926s-.49936,.19515-.6926,.00574c-.16358-.16071-.40657-.32812-.70982-.34439-.28986,.00765-.53571,.21237-.69164,.38265-.09662,.10619-.22863,.15976-.3616,.15976Z" style="fill:#155263;"/></g></g><g><path d="M33.24675,47.88627c-.22863,0-.45822-.00957-.68973-.03061-1.41102-.12723-2.74839-.65051-3.86764-1.51147-.21428-.1655-.25446-.47257-.08992-.68686s.47353-.25351,.68686-.08992c.97193,.74808,2.13328,1.20152,3.35872,1.31249,3.20757,.28986,6.09658-1.77263,6.86379-4.90462l.68303-2.79048c.27073-1.10873,.07175-2.24233-.55867-3.19226-.6065-.91166-1.56121-1.54113-2.63072-1.73723l-.03827,.00957c-.45631,.12149-1.85107,.48692-3.21331,.36543-1.36798-.1234-2.66899-.73373-3.0966-.93462l-.0354-.01626c-1.17378,.00096-2.28155,.50988-3.05259,1.4072-.17506,.20567-.48501,.22863-.69068,.05166-.20472-.17602-.22863-.48501-.05166-.69068,.98341-1.14317,2.38104-1.77741,3.90973-1.7468,.11097,.00191,.17698,.03348,.33673,.1081,.38935,.18272,1.57269,.73756,2.76848,.84566,1.19291,.11384,2.45949-.22576,2.87466-.33578,.17124-.04687,.24203-.06505,.35491-.04592,1.37276,.21907,2.60585,1.01307,3.37976,2.17824,.78443,1.18048,1.03124,2.58863,.69451,3.96713l-.68303,2.79048c-.82653,3.37976-3.79876,5.67758-7.21296,5.67758Z" style="fill:#155263;"/><path d="M36.64086,46.96504c-.02966,0-.05931-.00287-.08897-.00765-.2669-.04879-.44292-.30421-.39413-.57015l1.30006-7.08286c.04879-.2669,.30899-.44005,.57015-.39413,.2669,.04879,.44292,.30421,.39413,.57015l-1.30006,7.08286c-.044,.23629-.24968,.40178-.48118,.40178Z" style="fill:#155263;"/><path d="M34.07519,36.21925c-.15306,0-.30803-.0067-.46588-.02105-2.02996-.18272-3.51465-1.49521-3.38072-2.98659,.02487-.26977,.26116-.46014,.53188-.44387,.26977,.02392,.46779,.26212,.44387,.53188-.08227,.91262,1.05899,1.79367,2.49297,1.92282,1.43494,.12245,2.71491-.53284,2.79718-1.44546,.02392-.26977,.26212-.46014,.53188-.44387,.26977,.02392,.46779,.26212,.44387,.53188-.12436,1.37563-1.57652,2.35426-3.39507,2.35426Z" style="fill:#155263;"/></g><g><g><path d="M16.28289,47.88722c-4.06088,0-7.59466-2.73404-8.57807-6.75378l-.82174-3.3568c-.39891-1.62913-.1081-3.29558,.81983-4.69225,.91645-1.3785,2.3753-2.31886,4.00348-2.57906,.11575-.01531,.18176,0,.37787,.05261,.50223,.13393,2.03761,.54241,3.49647,.40944,1.4579-.13201,2.89188-.80548,3.3635-1.02646,.18846-.08897,.25159-.11862,.36734-.12053,2.61159-.04783,5.00029,1.65114,5.78663,4.15845,.08036,.25829-.06314,.53284-.32143,.61415-.25638,.08227-.53188-.06314-.61415-.32143-.64477-2.0577-2.57715-3.47255-4.72286-3.47255h-.01722l-.06218,.0287c-.50988,.23916-2.06153,.96811-3.69162,1.11543-1.63009,.15019-3.29079-.29273-3.83607-.43813l-.06314-.01626c-1.3211,.23629-2.50253,1.01115-3.25062,2.13806-.77391,1.16517-1.01785,2.55611-.68494,3.91643l.82174,3.3568c.93367,3.81407,4.4464,6.32426,8.35996,5.97413,1.49234-.13488,2.90719-.68781,4.09149-1.59852,.21333-.16358,.52136-.12532,.68686,.08992,.16454,.21428,.12436,.52136-.08992,.68686-1.33162,1.02455-2.92249,1.64635-4.60042,1.7975-.27551,.02487-.55006,.03731-.82079,.03731Z" style="fill:#155263;"/><path d="M12.20097,46.77849c-.2315,0-.43718-.1655-.48118-.40178l-1.56313-8.51876c-.04879-.26594,.12723-.52136,.39413-.57015,.25829-.044,.5204,.12723,.57015,.39413l1.56313,8.51876c.04879,.26594-.12723,.52136-.39413,.57015-.02966,.00478-.05931,.00765-.08897,.00765Z" style="fill:#155263;"/><path d="M15.31001,33.85256c-2.11606,0-3.86477-1.16039-4.00731-2.74073-.02392-.26977,.17411-.50797,.44387-.53188,.26307-.02105,.50797,.17411,.53188,.44387,.10332,1.15082,1.69132,1.99361,3.4716,1.82907,.9088-.08131,1.73436-.39891,2.32556-.89349,.54049-.45153,.81122-.99393,.76339-1.52773-.02392-.26977,.17411-.50797,.44387-.53188,.26403-.022,.50797,.17411,.53188,.44387,.07749,.86288-.31664,1.70375-1.11064,2.36765-.7433,.62085-1.76115,1.01785-2.86605,1.11734-.17793,.01626-.35395,.02392-.52806,.02392Z" style="fill:#155263;"/></g><g><path d="M15.04885,30.75691c-1.14413,0-2.24138-.39604-3.13104-1.13743-1.00446-.83896-1.62339-2.01848-1.74106-3.32236-.02392-.26977,.17411-.50701,.44387-.53188,.2669-.01818,.50701,.17315,.53188,.44387,.09375,1.04272,.58928,1.98691,1.39285,2.65751,.80452,.67155,1.82046,.98341,2.8651,.89445,1.04272-.09375,1.98691-.58833,2.65751-1.39285,.67155-.80357,.98915-1.82142,.8954-2.86414-.02392-.26977,.17506-.50797,.44387-.53188,.26499-.01435,.50797,.17411,.53188,.44387,.11671,1.30388-.28029,2.57524-1.1183,3.58065-.83896,1.00446-2.01848,1.62244-3.32236,1.7401-.15019,.01339-.30038,.02009-.44961,.02009Z" style="fill:#155263;"/><g><path d="M19.45028,25.94987c-.24968,0-.46301-.19133-.48692-.44483l-.09471-1.03124c-.00861-.09184,.00957-.18463,.05166-.2669,.00765-.01626,.8007-1.63105,.24777-3.81694-.05357-.21046-.24107-.40944-.49075-.5204-.27933-.1234-.58259-.11767-.83322,.01626-.23724,.12532-.5338,.03827-.66294-.20185-.12723-.2382-.03731-.53475,.20185-.66294,.51658-.27551,1.1336-.29368,1.69036-.04687,.52614,.23246,.91645,.67155,1.04368,1.17474,.55676,2.19737-.05166,3.88295-.26116,4.36509l.08323,.90114c.02487,.26977-.17411,.50797-.44292,.53284-.01531,.00096-.03061,.00191-.04592,.00191Z" style="fill:#155263;"/><path d="M10.65984,26.64055c-.02966,0-.05931-.00287-.08897-.00861-.15402-.02774-.28507-.12819-.353-.26977-.01722-.03635-.43431-.92219-1.06855-3.33289-.27647-1.05325-.22672-1.90656,.14828-2.53602,.18176-.30708,.40848-.50223,.60172-.62468-.04305-.76721,.20185-1.91421,1.37754-2.47958,.30516-.14828,.65338-.2315,1.09342-.26212,4.31152-.30229,6.84179,.89636,6.94798,.94706,.24298,.11767,.34439,.40944,.22768,.65242-.11671,.2449-.40657,.34726-.65338,.23055-.02392-.01244-2.42983-1.13839-6.4534-.85235-.31282,.02105-.54623,.07462-.7366,.16645-1.04942,.5051-.80548,1.73149-.79496,1.78315,.05453,.25829-.10523,.51562-.3616,.57876-.0861,.02679-.92601,.33291-.44961,2.14763,.25638,.9748,.47544,1.6894,.64381,2.19067,.17602-.51945,.34152-1.31632,.34056-2.47671,0-.19611,.11575-.37213,.29464-.45057,.17889-.07557,.38648-.04113,.52997,.09184,.04783,.044,1.2991,1.13552,3.96522,.49553,.26594-.06888,.5271,.09949,.59024,.36256s-.09949,.5271-.36256,.59024c-1.94004,.46588-3.28984,.12245-4.06662-.23533-.15976,2.25859-.93654,3.06407-1.03411,3.15687-.09184,.08705-.21333,.13488-.33769,.13488Z" style="fill:#155263;"/></g><path d="M15.18947,29.17274c-.46588,0-.94036-.16645-1.38328-.50223-.2162-.16358-.25829-.47066-.09471-.6859,.16454-.2162,.47257-.25733,.6859-.09471,.58067,.43909,1.17856,.39222,1.68175-.1368,.18846-.19611,.49745-.20185,.6926-.01722,.19611,.18654,.20376,.49649,.01722,.6926-.4697,.49458-1.02742,.74426-1.59948,.74426Z" style="fill:#155263;"/></g></g><path d="M34.23208,33.24893c-2.56759,0-4.65686-1.9496-4.65686-4.345v-1.22448c0-.27073,.21907-.48979,.48979-.48979s.48979,.21907,.48979,.48979v1.22448c0,1.85586,1.64922,3.36541,3.67727,3.36541,2.02709,0,3.67632-1.50956,3.67632-3.36541v-.60172c0-.27073,.21907-.48979,.48979-.48979s.48979,.21907,.48979,.48979v.60172c0,2.39539-2.08832,4.345-4.6559,4.345Z" style="fill:#155263;"/><path d="M38.98364,28.69347c-.02583,0-.05261-.00191-.0794-.0067l-5.15335-.84948c-.14349-.02392-.26881-.10906-.34247-.23437l-.30038-.51084-.41422,.67729c-.07175,.11767-.19037,.19898-.32525,.22576-2.4901,.47927-3.26497-.23533-3.39507-.38361-.10906-.12532-.14828-.29655-.10332-.45631,.03348-.11671,.83609-2.8804,3.38933-3.95087,.25159-.10332,.53667,.01339,.64094,.26212,.10523,.24968-.01244,.53667-.26212,.64094-1.61861,.67825-2.41261,2.2519-2.69769,2.95885,.29847,.09662,.91262,.19611,2.03187,.00478l.72512-1.18717c.08897-.14541,.24777-.23437,.41805-.23437h.00383c.17219,.00191,.33099,.09279,.41805,.24107l.59885,1.01785,4.46362,.73565c.05166-.38169,.06601-.97193-.19133-1.51338-.29942-.63042-1.52008-2.65846-4.57841-2.32652-.26307,.03157-.51084-.16358-.53954-.43431-.02966-.26881,.1655-.51084,.43431-.53954,2.94067-.31951,4.80705,1.27805,5.56757,2.87945,.59406,1.25031,.17506,2.58767,.15689,2.64412-.06601,.20472-.25638,.3396-.46588,.3396Z" style="fill:#155263;"/><path d="M33.29745,24.60772c-.14923,0-.29368-.06792-.38743-.19037-.0067-.00765-.75191-.93845-1.90464-.93845-.27073,0-.48979-.21907-.48979-.48979s.21907-.48979,.48979-.48979c.80931,0,1.46173,.30708,1.91995,.62563,.09088-.5204,.24681-1.13265,.5118-1.53539,.14923-.22576,.45344-.2889,.6792-.13967s.28794,.45344,.13967,.6792c-.27647,.419-.43527,1.46077-.4697,2.01944-.01244,.2028-.15019,.37787-.34534,.43718-.04687,.01531-.09566,.022-.14349,.022Z" style="fill:#155263;"/><path d="M34.2493,31.61118c-.38265,0-.76626-.07557-1.12404-.23055l-.28029-.12053c-.24872-.10619-.36352-.39413-.25638-.64285,.10619-.24968,.39604-.36639,.64285-.25638l.28029,.12053c.53858,.22959,1.1623,.19515,1.66931-.09566,.23342-.13393,.53475-.05453,.66868,.1808,.13488,.23533,.05357,.5338-.1808,.66868-.43527,.24968-.92697,.37595-1.41963,.37595Z" style="fill:#155263;"/></g><path d="M27.29081,21.10753c-.01852,.15152-.08325,.28778-.18295,.39574l-1.02157,.93331c-.2506,.22895-.64641,.18021-.83398-.1027l-.76291-1.1507c-.07076-.12879-.10076-.27663-.08224-.42815,.04862-.39776,.41054-.68511,.80829-.63649,.18921,.02313,.35224,.1181,.46594,.25415,.11731,.14036,.31349,.16505,.4614,.05742,.14444-.1051,.3271-.15823,.51683-.13504,.39776,.04862,.6798,.4147,.63117,.81245Z" style="fill:#155263;"/><path d="M29.33842,17.26541c.06319,.13896,.07899,.28898,.0502,.43308l-.38517,1.32903c-.09449,.32603-.45765,.49079-.76521,.34716l-1.25094-.58419c-.12753-.07302-.2302-.18353-.29339-.32249-.16588-.36477-.00685-.79867,.35792-.96455,.17352-.07891,.36215-.08286,.53011-.02604,.17328,.05862,.35356-.02259,.42367-.19155,.06846-.16499,.19664-.30556,.37063-.38468,.36477-.16588,.7963-.00053,.96218,.36424Z" style="fill:#155263;"/><path d="M26.62242,15.69284c-.01663,.15174-.07965,.2888-.17799,.39799l-1.00981,.94602c-.24772,.23207-.6441,.18828-.83519-.09226l-.77725-1.14106c-.07236-.1279-.10421-.27535-.08759-.42709,.04364-.39833,.40194-.6902,.80027-.64655,.18948,.02076,.35369,.11369,.46909,.2483,.11905,.13888,.31553,.16111,.46208,.05165,.14311-.10689,.32509-.16231,.5151-.14149,.39833,.04364,.68493,.40616,.64129,.80449Z" style="fill:#155263;"/></g></g></svg>