<svg width="26" height="27" viewBox="0 0 26 27" fill="none" xmlns="http://www.w3.org/2000/svg">
<path d="M12.9748 6.98635C9.29255 6.98635 6.32243 9.89202 6.32243 13.4944C6.32243 17.0967 9.29255 20.0024 12.9748 20.0024C16.6571 20.0024 19.6272 17.0967 19.6272 13.4944C19.6272 9.89202 16.6571 6.98635 12.9748 6.98635ZM12.9748 17.7254C10.5952 17.7254 8.64989 15.828 8.64989 13.4944C8.64989 11.1608 10.5894 9.26331 12.9748 9.26331C15.3602 9.26331 17.2997 11.1608 17.2997 13.4944C17.2997 15.828 15.3544 17.7254 12.9748 17.7254ZM21.4509 6.72014C21.4509 7.56409 20.7562 8.23811 19.8993 8.23811C19.0366 8.23811 18.3477 7.55842 18.3477 6.72014C18.3477 5.88186 19.0424 5.20217 19.8993 5.20217C20.7562 5.20217 21.4509 5.88186 21.4509 6.72014ZM25.8569 8.26077C25.7585 6.22737 25.2837 4.4262 23.761 2.94221C22.2441 1.45823 20.403 0.993774 18.3245 0.891821C16.1823 0.772876 9.76152 0.772876 7.61933 0.891821C5.54661 0.98811 3.70548 1.45256 2.18279 2.93655C0.660097 4.42053 0.19113 6.2217 0.0869154 8.2551C-0.0346684 10.3508 -0.0346684 16.6323 0.0869154 18.728C0.18534 20.7614 0.660097 22.5625 2.18279 24.0465C3.70548 25.5305 5.54082 25.9949 7.61933 26.0969C9.76152 26.2158 16.1823 26.2158 18.3245 26.0969C20.403 26.0006 22.2441 25.5362 23.761 24.0465C25.2779 22.5625 25.7527 20.7614 25.8569 18.728C25.9785 16.6323 25.9785 10.3565 25.8569 8.26077ZM23.0894 20.9766C22.6378 22.0867 21.7636 22.942 20.623 23.3895C18.915 24.0522 14.8622 23.8992 12.9748 23.8992C11.0874 23.8992 7.02877 24.0465 5.3266 23.3895C4.19182 22.9477 3.31757 22.0924 2.86019 20.9766C2.18279 19.3057 2.33911 15.3408 2.33911 13.4944C2.33911 11.6479 2.18858 7.67737 2.86019 6.01213C3.31178 4.90198 4.18603 4.0467 5.3266 3.59924C7.03456 2.93655 11.0874 3.08948 12.9748 3.08948C14.8622 3.08948 18.9208 2.94221 20.623 3.59924C21.7578 4.04104 22.632 4.89631 23.0894 6.01213C23.7668 7.68303 23.6105 11.6479 23.6105 13.4944C23.6105 15.3408 23.7668 19.3114 23.0894 20.9766Z" fill="#404040"/>
</svg>
