<?xml version="1.0" encoding="UTF-8"?><svg id="uuid-684195f4-8b70-465a-9837-3beb6891ff56" xmlns="http://www.w3.org/2000/svg" width="48" height="48.00061" viewBox="0 0 48 48.00061"><g id="uuid-4a5e6a49-2125-4b7a-816d-b988c120ee0f"><g><g><g><g><path d="M38.39349,45.76591c-.52423,0-1.11639-.04305-1.74298-.09662-.32717-.0287-.73278-.06409-.83323-.0507-.35587,.04783-.71556-.04879-1.00255-.27073-.28699-.22098-.47066-.5405-.51754-.89923l-.16167-1.2331c-.03444-.26881,.15402-.51467,.42188-.55006,.26403-.03827,.51467,.15402,.55006,.42188l.16167,1.23406c.01244,.10045,.06314,.18941,.14349,.25064,.07844,.06122,.17698,.09279,.27742,.07462,.19228-.02583,.49171-.00191,1.04369,.04592,.62372,.05453,2.52168,.21716,2.82781-.0861,.22003-.21811,.3396-.45536,.36448-.72513,.14732-1.56505,1.81665-3.46875,1.88744-3.54911,.1808-.20472,.49075-.22194,.69165-.04305,.20281,.17985,.22194,.48884,.04305,.69165-.42474,.48119-1.54974,1.95727-1.64636,2.99235-.04688,.50032-.26594,.94707-.65051,1.32876-.35682,.35395-1.02073,.46397-1.85778,.46397Z" style="fill:#155263;"/><path d="M42.9021,42.55737c-.1368,0-.2736-.03922-.397-.11575-.24681-.15402-.56441-.50032-.83418-1.82526-.09566-.47162-.32334-.9375-.65912-1.34885-.88106-1.07526-1.67315-2.64031-1.70568-2.70631-.01722-.03253-.02966-.06696-.03827-.10332-.35682-1.45408-.28508-3.01052-.22672-4.26084,.01913-.4104,.03635-.78922,.03635-1.1183-.00096-.42474-.17506-.88202-.51849-1.35746-.23724-.32717-.24777-.75957-.02774-1.10013s.62181-.50893,1.01307-.4257c2.29592,.47736,6.95089,2.85651,7.29815,5.51403,.25733,1.96971-.55772,3.1148-1.15274,3.94994-.31569,.44483-.56633,.79688-.57781,1.13265-.04879,1.38712-1.05995,3.49075-2.02615,3.74235-.06122,.01531-.12245,.02296-.18367,.02296Zm-2.69675-6.38744c.13967,.26881,.83418,1.5861,1.56409,2.47768,.43718,.5338,.73469,1.14796,.86193,1.7736,.12915,.63712,.25638,.94707,.33195,1.08865,.40848-.34343,1.13265-1.69802,1.16901-2.75223,.02296-.63042,.38074-1.13265,.75957-1.6655,.5558-.78157,1.18622-1.66741,.97864-3.25638-.26212-2.00797-4.38903-4.23693-6.52423-4.68176,.47258,.63999,.70982,1.28858,.71078,1.92283,.00096,.34343-.01722,.73756-.03731,1.16518-.05453,1.17188-.12245,2.625,.18559,3.92793Z" style="fill:#155263;"/><path d="M34.40147,43.65558c-.89636,0-1.72003-.53189-2.27487-1.00446-.29751-.25351-.48884-.60077-.53954-.97959v-.00191l-.11767-.90115c-.04209-.33099,.08897-.65816,.3683-.92124,.4764-.45249,1.24649-1.01977,2.20217-1.14509,.95185-.12149,1.8463,.22577,2.42506,.5405,.33673,.18272,.54719,.46588,.5912,.79592l.11767,.9021c.04879,.37883-.04688,.76435-.26977,1.08578-.46014,.66295-1.21779,1.47895-2.21843,1.61097-.09566,.01244-.19037,.01818-.28412,.01818Zm-1.84247-2.11416c.01818,.14062,.08801,.26594,.20281,.36352,.37883,.32239,1.11926,.84279,1.79656,.76052,.64573-.08418,1.19388-.69739,1.54018-1.19675,.0861-.12341,.12149-.26307,.10332-.40179l-.11767-.89923h0c-.00191,0-.02296-.0287-.08705-.06409-.45249-.24681-1.13744-.52136-1.83004-.42953-.69452,.09088-1.2838,.53093-1.65689,.88393-.06122,.05835-.06888,.09279-.06888,.09375l.11767,.88967Z" style="fill:#155263;"/><g><path d="M30.45631,46.8383c-.28316,0-.52615-.04879-.72226-.16167-.47066-.27168-.79688-.64764-.97098-1.11735-.36065-.97864-1.82526-2.11416-2.36001-2.47003-.22481-.14923-.28603-.45344-.13584-.67921,.14923-.22577,.45344-.28412,.67921-.13584,.08897,.05931,2.19165,1.47034,2.73501,2.94547,.09375,.25255,.27073,.45249,.54145,.60842,.375,.20855,2.16199-.4324,2.75032-.64286,.52423-.18846,.80644-.28795,.99968-.31378,.20568-.02679,.35108-.21716,.3243-.42283-.03444-.26881,.15497-.51467,.42283-.54911,.27264-.0354,.51371,.15402,.54911,.42283,.09566,.74139-.42953,1.42347-1.16901,1.52105-.10236,.01339-.48693,.1521-.79592,.26307-1.10969,.39892-2.11129,.73182-2.8479,.73182Z" style="fill:#155263;"/><path d="M34.3852,48.00061c-.80453,0-1.58227-.26212-2.23087-.75861l-.83036-.6352c-.21524-.16454-.25542-.47162-.09184-.68686,.1655-.21524,.47258-.25542,.68686-.09184l.83036,.6352c.57207,.43814,1.28667,.62564,1.99362,.5338l.74904-.09758c.7146-.09375,1.35077-.45823,1.78986-1.02742l.63903-.82749c.16741-.21524,.47449-.25159,.68686-.08801,.21429,.1655,.25351,.47258,.08801,.68686l-.63903,.82749c-.5979,.77487-1.4646,1.27232-2.4375,1.40051l-.75,.09758c-.16167,.02105-.32334,.03157-.48406,.03157Z" style="fill:#155263;"/><path d="M26.27966,44.72892c-.99968,0-2.51355-1.77168-2.91629-3.09662-.09758-.32239-.42953-.59694-.84949-.94611-.7897-.65434-1.8707-1.55166-2.12803-3.52232-.34726-2.65753,3.54098-6.1521,5.63648-7.20249,.36065-.18272,.78827-.12054,1.08865,.15115,.30038,.27264,.40179,.6926,.25638,1.07047-.14445,.37691-.2889,.93272-.15306,1.44547,.08418,.31856,.19802,.67825,.32239,1.06952,.37691,1.19483,.84662,2.68048,.87628,4.17761,.00096,.03731-.00287,.07366-.01052,.11001-.01531,.0727-.37883,1.78795-.95376,3.05357-.21907,.4831-.31952,.99203-.29177,1.47321,.08036,1.3479-.13776,1.76499-.33673,1.97736-.14349,.15306-.33386,.23724-.53667,.23916h-.00383Zm.17315-13.897c-1.94149,.98246-5.3581,4.19675-5.09598,6.20568,.20807,1.58897,1.04416,2.28253,1.78221,2.89477,.50319,.41709,.97864,.81218,1.16183,1.41486,.30612,1.00829,1.35316,2.13138,1.83626,2.36001,.03731-.15689,.08036-.48884,.04209-1.13744-.03731-.63903,.09279-1.30867,.37787-1.93527,.47545-1.04847,.80931-2.49968,.87532-2.79624-.03731-1.33833-.4764-2.7264-.83036-3.84471-.12819-.40753-.24681-.78253-.33482-1.11448-.16263-.61511-.10045-1.30389,.18559-2.04719Z" style="fill:#155263;"/><path d="M26.91008,31.49774c-.08897,0-.17889-.02392-.25925-.07462-.22959-.14349-.29943-.44579-.15593-.67443,1.80038-2.88233,5.88138-3.44579,6.05453-3.46875,.17028-.022,4.25893-.5271,6.74139,1.79656,.19707,.18463,.20759,.49458,.02296,.6926-.18367,.19898-.49362,.20759-.6926,.02296-2.14094-2.00319-5.90816-1.54592-5.94547-1.54018-.03731,.00478-3.79688,.52997-5.35045,3.01531-.09279,.14923-.25255,.23055-.41518,.23055Z" style="fill:#155263;"/></g></g><g><path d="M35.20886,37.91387c-.1014,0-.20376-.03157-.29177-.09662-.21716-.16071-.26307-.46779-.1014-.68495,.50606-.68304,1.13744-1.09056,1.82621-1.18048,.68878-.08897,1.40338,.14349,2.06633,.67251,.21046,.16837,.24585,.47736,.07653,.68878-.16837,.21142-.4764,.2449-.68878,.07653-.45057-.35969-.90593-.51754-1.32781-.46684-.41901,.05453-.82175,.32908-1.16614,.79305-.09566,.12915-.24394,.19802-.39318,.19802Z" style="fill:#155263;"/><path d="M29.38967,38.67344c-.1014,0-.20376-.03157-.29177-.09662-.21716-.16071-.26307-.46684-.1014-.68495,.5051-.68208,1.13552-1.09056,1.8243-1.18048,.69356-.09184,1.40434,.14349,2.06728,.67251,.21142,.16837,.24681,.4764,.07749,.68782-.16741,.21237-.4764,.24585-.68782,.07749-.45153-.35969-.91454-.51849-1.32972-.46684-.41901,.05548-.82175,.32908-1.16518,.79305-.09566,.12915-.24394,.19802-.39318,.19802Z" style="fill:#155263;"/></g></g><g><path d="M22.26419,47.99965c-6.772,0-12.42092-4.85969-13.43256-11.55612l-.80788-5.34758c-.38026-2.51881,.28795-4.99936,1.8817-6.98438,1.57318-1.95918,3.90737-3.1808,6.40418-3.35108,.12101-.00765,.17985,.01339,.47018,.11958,.77774,.28316,3.14302,1.14413,5.48438,1.14413,2.34088,0,4.70615-.86097,5.48294-1.14413,.29082-.10619,.353-.12723,.47066-.11958,3.97481,.27073,7.3412,3.18176,8.18591,7.07908,.0574,.26403-.11001,.52423-.375,.58163-.26786,.0574-.52423-.11097-.58163-.375-.74713-3.44483-3.70504-6.02487-7.21014-6.3023-.03827,.01435-.08992,.03348-.15402,.05644-.81792,.29751-3.30517,1.20344-5.81872,1.20344-2.51403,0-5.00175-.90593-5.8192-1.20344-.06409-.02296-.11623-.04209-.15497-.05644-2.19212,.17411-4.23693,1.25702-5.6207,2.98087-1.4206,1.76881-2.0161,3.98055-1.6765,6.22577l.80788,5.34758c.93798,6.21237,6.17985,10.72194,12.46349,10.72194,2.3978,0,4.73198-.6773,6.74952-1.95918,.22864-.14541,.53093-.07749,.67634,.15019,.14541,.22864,.07749,.53189-.15019,.67634-2.17538,1.38233-4.69133,2.11224-7.27567,2.11224Z" style="fill:#155263;"/><path d="M14.84263,45.64251c-.25064,0-.46397-.19133-.4874-.44483l-1.23788-13.49713c-.02439-.26977,.17363-.50797,.44292-.53284,.27168-.01531,.50797,.17411,.53284,.44292l1.23788,13.49713c.02439,.26977-.17363,.50797-.44292,.53284-.01531,.00096-.03061,.00191-.04544,.00191Z" style="fill:#155263;"/><path d="M22.26419,25.96744c-3.53476,0-6.41087-2.06154-6.41087-4.59566,0-.27073,.21907-.4898,.4898-.4898s.4898,.21907,.4898,.4898c0,1.99362,2.43654,3.61607,5.43128,3.61607s5.43033-1.62245,5.43033-3.61607c0-.27073,.21907-.4898,.4898-.4898s.4898,.21907,.4898,.4898c0,2.53412-2.87564,4.59566-6.40992,4.59566Z" style="fill:#155263;"/><g><path d="M22.16853,21.10105c-4.07621,0-7.39286-3.31665-7.39286-7.39286,0-.27073,.21907-.4898,.4898-.4898s.4898,.21907,.4898,.4898c0,3.53667,2.87707,6.41327,6.41327,6.41327s6.41279-2.87659,6.41279-6.41327c0-.27073,.21907-.4898,.4898-.4898s.4898,.21907,.4898,.4898c0,4.07621-3.31665,7.39286-7.39238,7.39286Z" style="fill:#155263;"/><g><path d="M29.07111,14.19799c-.27073,0-.4898-.21907-.4898-.48884l-.00191-1.62054c0-.09279,.02679-.18367,.07557-.26212,.01531-.02392,1.5354-2.50542,.96142-6.10332-.06696-.42474-.37787-.82749-.83131-1.07908-.49267-.27264-1.05517-.30995-1.54114-.10523-.24777,.10714-.53667-.00957-.6419-.25925-.10619-.24968,.01052-.53667,.25925-.6419,.76626-.32717,1.64158-.26977,2.39923,.15019,.71365,.39509,1.20918,1.06091,1.32398,1.78029,.56441,3.54241-.6926,6.06218-1.02551,6.65242l.00191,1.48661c0,.27073-.21907,.49075-.48884,.49075h-.00096Z" style="fill:#155263;"/><path d="M15.27264,14.03823c-.04401,0-.08849-.00574-.13202-.01818-.15067-.04209-.27264-.15402-.32717-.30134-.02152-.05835-.53858-1.47226-1.18335-5.29401-.27025-1.60332-.08945-2.85651,.53763-3.72417,.35252-.48693,.76818-.7433,1.07573-.87532-.00861-1.11926,.45201-2.88807,2.31936-3.58833,.4654-.17459,.98294-.24681,1.63919-.23581,6.68543,.1368,10.40482,2.32127,10.55979,2.41406,.23151,.13871,.30708,.43909,.16837,.6706-.13967,.23246-.43718,.30517-.67156,.17028-.0354-.022-3.67251-2.14429-10.07669-2.27535-.52519-.01196-.93033,.04448-1.27519,.17363-1.9147,.71843-1.67602,2.86798-1.66502,2.95886,.03205,.26307-.15019,.5051-.41183,.54528-.06696,.01244-1.78029,.36256-1.23358,3.60364,.353,2.09407,.66821,3.45057,.87628,4.23693,.43575-.728,1.02838-2.12946,1.24506-4.56601,.01722-.19515,.14828-.36065,.33386-.42188,.18511-.06218,.38935-.00765,.51945,.13871,.07605,.08227,1.95057,2.07207,6.35826,1.41964,.26786-.03348,.5161,.14636,.55533,.41422s-.14589,.51658-.41374,.5558c-3.37596,.49554-5.46046-.43909-6.47879-1.11926-.52184,3.78827-1.9501,4.9611-2.01515,5.0118-.08753,.06983-.19515,.10619-.30421,.10619Z" style="fill:#155263;"/></g><path d="M22.1824,18.62529c-.75478,0-1.50765-.30421-2.17538-.91167-.19994-.18272-.21429-.49267-.03205-.6926,.18224-.19898,.49171-.21333,.69212-.03253,.94754,.8648,2.0448,.87532,3.01004,.02774,.20281-.17793,.51276-.1588,.69117,.04496s.15832,.51276-.04544,.69165c-.66295,.58163-1.4029,.87245-2.14047,.87245Z" style="fill:#155263;"/></g></g></g><path d="M47.17921,28.44799c-.02774,0-.05548-.00191-.08323-.0067-.26594-.04496-.44579-.29847-.40083-.56537,.2162-1.27232,.32526-2.57621,.32526-3.87628,0-8.11224-4.34598-15.71556-11.34088-19.84152-.23342-.13776-.31091-.43814-.17315-.6706,.13776-.23438,.43814-.30899,.6706-.17315,7.29241,4.30198,11.82302,12.22768,11.82302,20.68527,0,1.35459-.11384,2.71397-.33865,4.04082-.04114,.2382-.24777,.40753-.48214,.40753Z" style="fill:#155263;"/><path d="M6.03874,39.65973c-.13919,0-.27742-.05931-.37452-.17315C2.0118,35.16547,0,29.66579,0,23.99965,0,17.13964,2.94595,10.59244,8.08259,6.03696c.19994-.17889,.51132-.16167,.69117,.04114,.17937,.20281,.16119,.5118-.04161,.69165C3.80548,11.13964,.97959,17.41993,.97959,23.99965c0,5.43463,1.92953,10.71046,5.43272,14.85364,.17459,.20663,.14876,.51562-.05788,.69069-.09184,.07749-.20424,.11575-.31569,.11575Z" style="fill:#155263;"/></g></g></svg>