<?xml version="1.0" encoding="UTF-8"?><svg id="uuid-fa7d55f7-a3b6-4098-bb2e-5817bff517f9" xmlns="http://www.w3.org/2000/svg" width="78" height="78" viewBox="0 0 78 78"><g id="uuid-cee9676a-eb15-44b7-a135-b3c228702e5c"><g><rect x="0" y="0" width="78" height="78" rx="31.99997" ry="31.99997" style="fill:#ffbb09;"/><g><g><g><g><path d="M44.95865,49.89322c-.94946,0-2.17981-.24383-3.52525-.53837-.5135-.11216-1.04504-.22822-1.20451-.22822-.95288,0-1.72825-.77537-1.72825-1.72825v-1.76628c0-.27601,.22335-.49936,.49936-.49936s.49936,.22335,.49936,.49936v1.76628c0,.40183,.32722,.72953,.72953,.72953,.25553,0,.66223,.0868,1.4181,.25163,1.16696,.25553,3.5945,.78512,4.15043,.36281,.38866-.29649,.6242-.64468,.71978-1.06601,.48034-2.11154,3.13172-4.44253,3.24436-4.54104,.20823-.18043,.52374-.15898,.70417,.04779,.18141,.20774,.15995,.52374-.04779,.70515-.02487,.02146-2.51873,2.2159-2.92641,4.00949-.14776,.65053-.51399,1.20158-1.08893,1.63852-.33453,.25553-.83096,.35696-1.44394,.35696Z" style="fill:#155263;"/><path d="M50.8856,46.13146c-.19604,0-.38183-.06827-.54325-.20091-.26626-.21847-.63541-.72368-.7661-2.58164-.05169-.72368-.29015-1.43273-.71002-2.10764-1.02993-1.65705-1.84918-3.98218-1.88332-4.08069-.01268-.03511-.02097-.07217-.02536-.10923-.23115-2.08326,.15361-4.24357,.46278-5.97962,.1029-.57738,.19799-1.10893,.25797-1.5761,.10338-.79878-.21554-1.59463-.5018-2.1213-.23505-.43304-.17994-.95678,.13996-1.33325,.31941-.37744,.82609-.51301,1.29131-.35501,3.2151,1.11965,9.11913,5.35249,9.11913,8.91139,0,2.74159-1.32593,4.16847-2.29393,5.21107-.5491,.59201-.98262,1.05919-1.07089,1.58683-.30625,1.84041-2.06083,4.56542-3.36823,4.72927-.03657,.00488-.07266,.00683-.10826,.00683Zm-2.94153-9.24788c.12728,.35306,.88119,2.40023,1.77067,3.83101,.49887,.80268,.79536,1.68923,.8573,2.56409,.0907,1.28643,.29162,1.71459,.3711,1.83748,.63395-.21554,2.14812-2.16811,2.43388-3.88465,.13752-.82414,.71393-1.44541,1.32398-2.10179,.95044-1.0231,2.02718-2.18372,2.02718-4.53226,0-2.95421-5.48075-6.93542-8.44861-7.9673-.10241-.03706-.17068,.02048-.20189,.05657-.03121,.03706-.07607,.11411-.02341,.21164,.51838,.95483,.72514,1.87162,.61493,2.72599-.06242,.47985-.15946,1.02798-.26577,1.62291-.29503,1.65607-.66126,3.713-.45937,5.63631Z" style="fill:#155263;"/><path d="M39,46.13146c-1.36202,0-2.53141-.97531-3.27216-1.79262-.3399-.37549-.52715-.85339-.52715-1.34788v-1.28936c0-.4067,.21408-.78707,.60323-1.06991,.73294-.53252,1.88235-1.16744,3.19609-1.16744s2.46314,.63493,3.1956,1.16744c.38964,.28284,.60372,.66321,.60372,1.06991v1.28936c0,.49448-.18726,.97238-.52715,1.34788-.74075,.81731-1.91014,1.79262-3.27216,1.79262Zm0-5.66849c-1.04553,0-1.99548,.53057-2.60846,.97628-.11996,.08778-.19214,.18531-.19214,.26236v1.28936c0,.24578,.09558,.4857,.2687,.67686,.60518,.66809,1.53562,1.46491,2.5319,1.46491s1.92672-.79683,2.5319-1.46491c.17312-.19116,.2687-.43109,.2687-.67686v-1.28936c0-.07705-.07217-.17458-.19262-.26236-.61249-.44572-1.56244-.97628-2.60798-.97628Z" style="fill:#155263;"/><g><path d="M33.04135,49.89322c-.61347,0-1.10941-.10143-1.44443-.35696-.57494-.43791-.94117-.98896-1.08844-1.63852-.40817-1.79359-2.90203-3.98804-2.9269-4.00949-.20774-.18141-.2292-.49741-.04779-.70515,.18043-.20677,.49594-.23017,.70417-.04779,.11265,.09851,2.76402,2.42949,3.24436,4.54104,.09558,.42133,.33112,.76952,.71978,1.06601,.5569,.42328,2.98396-.10631,4.15043-.36281,.75586-.16483,1.16257-.25163,1.4181-.25163,.40231,0,.73002-.3277,.73002-.72953,0-.27601,.22335-.49936,.49936-.49936s.49936,.22335,.49936,.49936c0,.95288-.77537,1.72825-1.72873,1.72825-.15946,0-.69101,.11606-1.20499,.22822-1.34495,.29454-2.57481,.53837-3.52428,.53837Z" style="fill:#155263;"/><path d="M39.53544,52.25737h-1.07138c-1.34007,0-2.60017-.51984-3.54768-1.46296l-1.05138-1.04651c-.19506-.19506-.19604-.51106-.00146-.70612,.19506-.19506,.51155-.19506,.70661-.00195l1.05089,1.04651c.75928,.75586,1.76872,1.17232,2.84302,1.17232h1.07138c1.0743,0,2.08423-.41646,2.844-1.17232l1.05041-1.04651c.19555-.19409,.51204-.19409,.70661,.00195,.19457,.19506,.1936,.51106-.00146,.70612l-1.05089,1.04651c-.948,.94312-2.2081,1.46296-3.54866,1.46296Z" style="fill:#155263;"/><path d="M27.1144,46.13146c-.03609,0-.07217-.00195-.10875-.00683-1.3074-.16385-3.06198-2.88984-3.36774-4.72927-.08827-.52764-.52179-.99481-1.07089-1.58683-.96799-1.0426-2.29393-2.46948-2.29393-5.21107,0-3.5589,5.90403-7.79174,9.11865-8.91139,.46473-.158,.97238-.02243,1.2918,.35501,.3199,.37647,.37501,.90021,.13996,1.33325-.28577,.52667-.60518,1.32252-.5018,2.1213,.05998,.46717,.15507,.99872,.25748,1.5761,.30917,1.73507,.69393,3.89636,.46278,5.97962-.00439,.03706-.01268,.07412-.02487,.10923-.03462,.09851-.85339,2.42364-1.88332,4.08069-.41987,.67491-.65833,1.38396-.71002,2.10764-.13167,1.85894-.50082,2.36415-.76659,2.58262-.16093,.13167-.34672,.19994-.54276,.19994Zm2.66991-19.513c-.01951,0-.04096,.00293-.06437,.0117-2.96738,1.03188-8.44812,5.01309-8.44812,7.9673,0,2.34854,1.07674,3.50916,2.02718,4.53226,.61006,.65638,1.18646,1.27765,1.32398,2.10179,.28528,1.71654,1.79993,3.66911,2.43388,3.88465,.07949-.12289,.27991-.55105,.3711-1.83748,.06193-.87485,.35843-1.76141,.8573-2.56409,.88948-1.43078,1.64291-3.47795,1.77018-3.83101,.20189-1.92331-.16434-3.98121-.45937-5.63728-.10582-.59396-.20286-1.14209-.26528-1.62194-.11021-.85437,.09656-1.77116,.61493-2.72599,.05267-.09753,.0078-.17458-.02341-.21164-.02438-.02828-.07022-.06827-.13801-.06827Zm.76123,10.37728h0Z" style="fill:#155263;"/><path d="M47.61588,27.6357c-.14435,0-.28723-.06242-.38622-.18238-2.70794-3.29167-8.17455-3.3297-8.22965-3.3297-.05462,0-5.52756,.04584-8.22965,3.3297-.17507,.21262-.48912,.2448-.7032,.06827-.21262-.17458-.24334-.4896-.06827-.70222,3.00493-3.65253,8.75778-3.69447,9.00112-3.69447s5.9962,.04194,9.00112,3.69447c.17507,.21262,.14435,.52764-.06827,.70222-.09314,.07705-.2053,.11411-.31698,.11411Z" style="fill:#155263;"/></g></g><g><path d="M41.11106,38.16123c-.11801,0-.23651-.04194-.33209-.12581-.20579-.18336-.22432-.49936-.04096-.70515,.83974-.9441,1.82139-1.46491,2.83961-1.50588,1.01773-.04584,2.03888,.3989,2.95226,1.2718,.19896,.19019,.20628,.50619,.0156,.70612-.19067,.19799-.50716,.20579-.70612,.0156-.71198-.68174-1.47808-1.01432-2.22175-.99579-.74075,.03023-1.47857,.43499-2.13349,1.17135-.09851,.11119-.23554,.16775-.37306,.16775Z" style="fill:#155263;"/><path d="M31.86513,38.53478c-.11801,0-.23651-.04194-.33209-.12581-.20579-.18336-.22432-.49936-.04096-.70515,.83974-.9441,1.82139-1.46491,2.83961-1.50588,1.02456-.03999,2.03937,.3989,2.95275,1.2718,.19896,.19019,.20628,.50619,.0156,.70612-.19067,.19799-.50667,.20579-.70612,.0156-.71246-.68174-1.48198-1.02602-2.22175-.99579-.74075,.03023-1.47906,.43499-2.13398,1.17135-.09851,.11119-.23554,.16775-.37306,.16775Z" style="fill:#155263;"/></g></g><path d="M47.00484,54.8751c-.03609,0-.07266-.0039-.10972-.0117-.2687-.06047-.4384-.3277-.37793-.59689,.62078-2.77573,.27114-7.01149,.26772-7.05441-.02341-.27406,.18043-.51594,.45498-.53935,.27991-.02536,.51643,.18043,.53983,.45547,.0156,.17946,.36672,4.42888-.2882,7.35675-.05169,.23212-.25797,.39012-.48668,.39012Z" style="fill:#155263;"/><path d="M31.0093,54.8751c-.22871,0-.43499-.158-.48668-.39012-.65492-2.92788-.30381-7.1773-.2882-7.35675,.02292-.27504,.25309-.4818,.53983-.45547,.27455,.02341,.47839,.26528,.45498,.53935-.00341,.04291-.35306,4.27868,.26772,7.05441,.06047,.26919-.10923,.53642-.37793,.59689-.03706,.0078-.07364,.0117-.10972,.0117Z" style="fill:#155263;"/></g><path d="M39,63.46854c-13.49193,0-24.46854-10.97612-24.46854-24.46854S25.50807,14.53146,39,14.53146s24.46854,10.97612,24.46854,24.46854-10.97661,24.46854-24.46854,24.46854Zm0-47.93837c-12.94137,0-23.46982,10.52846-23.46982,23.46982s10.52846,23.46982,23.46982,23.46982,23.46982-10.52846,23.46982-23.46982-10.52846-23.46982-23.46982-23.46982Z" style="fill:#155263;"/><path d="M38.92393,56.99444c-7.76638,0-14.79104-5.03064-17.89545-12.81653-.10241-.25651,.02243-.54715,.27894-.64956,.25504-.09851,.54617,.02341,.64858,.27894,2.95226,7.40454,9.61264,12.18843,16.96793,12.18843,7.52207,0,14.24048-4.93506,17.11666-12.57173,.09656-.25943,.38476-.39305,.64322-.29162,.25797,.09656,.38866,.38525,.29113,.64273-3.02346,8.03069-10.10907,13.21933-18.05101,13.21933Z" style="fill:#155263;"/></g></g></g></svg>