<?xml version="1.0" encoding="UTF-8"?><svg id="uuid-701a6c50-7d51-4c28-b295-bc408b8d1628" xmlns="http://www.w3.org/2000/svg" width="78" height="78" viewBox="0 0 78 78"><g id="uuid-13ebce04-1003-4628-a497-aea9ebf682ce"><g><rect x="0" y="0" width="78" height="78" rx="38.99996" ry="38.99996" style="fill:#ffbb09;"/><g><g><path d="M62.96918,35.10873c-.11509,0-.23017-.03901-.32478-.11996l-21.95712-18.77274c-.97628-.83535-2.39731-.83681-3.37554,0L15.3556,34.98877c-.20872,.18043-.52374,.15507-.70417-.05462-.17946-.20969-.15507-.52472,.05462-.70417L36.66219,15.45724c1.35568-1.15915,3.32093-1.15672,4.67465,0l21.95712,18.77274c.20969,.17946,.23407,.49448,.05462,.70417-.09851,.11509-.23895,.17458-.3794,.17458Z" style="fill:#155263;"/><path d="M56.24248,60.47553h-2.01304c-.27601,0-.49936-.22335-.49936-.49936s.22335-.49936,.49936-.49936h2.01304c1.43273,0,2.59822-1.16549,2.59822-2.59822V31.56836c0-.27601,.22335-.49936,.49936-.49936s.49936,.22335,.49936,.49936v25.31023c0,1.98378-1.61316,3.59694-3.59694,3.59694Z" style="fill:#155263;"/><path d="M24.47668,60.18196h-2.72014c-1.9828,0-3.59596-1.61316-3.59596-3.59694V31.56836c0-.27601,.22335-.49936,.49936-.49936s.49936,.22335,.49936,.49936v25.01666c0,1.43273,1.16549,2.59822,2.59725,2.59822h2.72014c.27601,0,.49936,.22335,.49936,.49936s-.22335,.49936-.49936,.49936Z" style="fill:#155263;"/><path d="M56.71941,29.76599c-.27601,0-.49936-.22335-.49936-.49936v-10.4436c0-.86315-.70222-1.56537-1.56537-1.56537h-3.39602c-.86412,0-1.56635,.70222-1.56635,1.56537v3.86515c0,.27601-.22335,.49936-.49936,.49936s-.49936-.22335-.49936-.49936v-3.86515c0-1.4142,1.15086-2.56409,2.56506-2.56409h3.39602c1.4142,0,2.56409,1.14989,2.56409,2.56409v10.4436c0,.27601-.22335,.49936-.49936,.49936Z" style="fill:#155263;"/></g><g><g><g><path d="M43.08849,62.21451c-.45449,0-1.01042-.0946-1.63462-.21262-.23505-.04486-.42426-.08583-.51984-.08778-.28186-.00195-.55593-.09656-.76464-.29454s-.32868-.46522-.33648-.75294l-.02243-.83096c-.00683-.27601,.21067-.50521,.4857-.51301h.01365c.27016,0,.49156,.21457,.49936,.4857l.02243,.83096c.00098,.03706,.04194,.07802,.08095,.07607,.15312,.00098,.34136,.03121,.72856,.10533,.4106,.07705,1.50002,.28772,1.75458,.15995,.11411-.0946,.18823-.20774,.21554-.34428,.21164-1.06601,1.41127-2.19542,1.54684-2.32123,.20286-.18531,.51789-.17263,.70515,.02926,.18726,.20286,.17458,.51886-.02828,.70515-.30332,.28089-1.1177,1.14696-1.24449,1.78091-.07315,.36867-.26919,.68369-.58323,.93825-.22042,.17848-.53349,.24578-.91874,.24578Z" style="fill:#155263;"/><path d="M45.89446,60.36825c-.1463,0-.28967-.04974-.40963-.14337-.27211-.21067-.41938-.62517-.49546-1.38689-.02828-.29162-.13849-.58909-.31795-.86217-.52081-.79-.94605-1.89893-.9636-1.94574-.01365-.03511-.02341-.0712-.02828-.10826-.14142-1.01432,.01463-2.05693,.14044-2.89374,.03999-.26821,.07705-.51496,.09948-.73148,.03121-.30625-.10728-.62127-.2292-.83194-.17165-.29552-.14337-.66028,.0712-.92752s.56373-.37354,.88851-.26919c1.53026,.48668,4.53616,2.44998,4.58785,4.31672,.03706,1.39274-.60664,2.12617-1.07674,2.66162-.21262,.24188-.39695,.45059-.42036,.62225-.12484,.89826-.95678,2.37195-1.7458,2.49191-.03316,.00488-.0673,.0078-.10046,.0078Zm-1.23377-4.64149c.08778,.22042,.44377,1.09137,.84364,1.69899,.26919,.40768,.43499,.86217,.47985,1.31472,.01853,.19506,.04194,.34136,.06437,.44962,.26236-.30722,.63005-.93044,.7032-1.45809,.06437-.46815,.36672-.81243,.65833-1.14501,.42133-.47888,.85632-.97433,.82901-1.975-.02926-1.07674-2.01596-2.6226-3.48575-3.24095,.13947,.35014,.19311,.69442,.15898,1.027-.02341,.23017-.06242,.49253-.10533,.7783-.11314,.75684-.25358,1.69411-.1463,2.55043Z" style="fill:#155263;"/><path d="M40.27863,60.52137c-.5686,0-1.16062-.30332-1.71459-.8807-.21067-.22237-.33063-.50619-.33941-.80268v-.00098l-.01658-.60664c-.00683-.27504,.12874-.53935,.37354-.72758,.36769-.28381,.95093-.62615,1.64144-.64565,.64663,0,1.28936,.29064,1.67363,.55398,.25943,.17848,.40573,.43011,.41353,.70807l.01658,.60567c.00878,.29649-.09558,.58811-.29357,.81926-.53544,.6242-1.12746,.96165-1.70972,.97726h-.04486Zm-1.05528-1.71264c.00098,.03609,.01268,.08875,.06242,.14142,.36184,.37647,.69637,.57056,1.01042,.57251,.28967-.0078,.63688-.23115,.97921-.62907,.03609-.04194,.05462-.0907,.05267-.14044l-.01463-.52862c-.27211-.18336-.69735-.37159-1.06309-.36867-.41158,.0117-.79,.23407-1.04163,.42426l.01463,.52862Z" style="fill:#155263;"/><g><path d="M37.49705,62.36763c-.31307,0-.57446-.05657-.77244-.19896-.3277-.23602-.5413-.54032-.63493-.90509-.15995-.62615-1.02115-1.44638-1.34007-1.70972-.21262-.17556-.24285-.49058-.0673-.7032,.17751-.21262,.49058-.24285,.7032-.0673,.1424,.11801,1.40347,1.18012,1.67168,2.23248,.03414,.13264,.11606,.2448,.25065,.34136,.24675,.10631,1.32252-.16483,1.72922-.26528,.38232-.0946,.57153-.14044,.71978-.14435,.03706-.00098,.07705-.04389,.07607-.08095-.0078-.27601,.20969-.50521,.4857-.51301h.01365c.27016,0,.49156,.21457,.49936,.4857,.0078,.28772-.09656,.5608-.29454,.77049-.19799,.20872-.46522,.32868-.75294,.33648-.08875,.00683-.27504,.05754-.50716,.11509-.69052,.17068-1.29716,.30625-1.77994,.30625Z" style="fill:#155263;"/><path d="M40.07967,63.41024c-.66711,0-1.32154-.25846-1.8053-.71588l-.50716-.4779c-.20091-.18921-.21067-.50521-.02146-.70612s.50521-.20969,.70612-.02146l.50814,.47888c.31015,.29454,.76172,.45937,1.16354,.44279l.50326-.01365c.43499-.0117,.83877-.19214,1.13819-.50619l.47985-.50521c.18921-.20091,.50716-.20579,.70612-.01756,.19994,.19019,.20774,.50619,.01756,.70612l-.47985,.50521c-.48278,.50716-1.13428,.79683-1.83456,.81633l-.50326,.01365c-.02341,0-.04779,.00098-.0712,.00098Z" style="fill:#155263;"/><path d="M34.71644,60.67547c-.02146,0-.04389-.00098-.06535-.00293-.79488-.07802-1.70581-1.50393-1.87942-2.39341-.03219-.1697-.22725-.36769-.45254-.59786-.49936-.50911-1.18305-1.20646-1.22109-2.5992-.05169-1.86674,2.84205-3.99291,4.34402-4.56152,.31795-.12094,.67101-.03414,.90021,.21944,.23017,.25553,.27796,.61737,.12386,.92264-.11021,.21652-.23212,.54032-.18336,.84364,.03316,.21554,.08485,.46132,.13947,.7266,.17068,.82901,.38427,1.85991,.29844,2.87911-.00293,.03706-.01073,.07412-.02146,.11021-.0156,.04779-.3794,1.17915-.8573,1.99646-.16385,.28089-.25748,.58421-.27114,.87875-.03219,.76269-.15702,1.18598-.41743,1.41127-.12386,.10923-.27796,.16678-.43694,.16678Zm.68272-9.04794c-1.43468,.69832-3.33263,2.35049-3.30239,3.42723,.02633,1.00067,.48863,1.47174,.93532,1.92721,.31015,.316,.63005,.64273,.72075,1.106,.10046,.51691,.49253,1.11088,.7822,1.40932,.0156-.10826,.03023-.25358,.03804-.44377,.02048-.45644,.16093-.91874,.4067-1.3391,.36769-.6281,.67491-1.51758,.75001-1.74288,.06047-.85925-.13069-1.78774-.28577-2.5358-.05852-.28381-.11216-.5452-.14825-.77439-.05169-.32868-.01756-.67491,.10338-1.03383Zm.82414,4.44253h0Z" style="fill:#155263;"/><path d="M36.02043,51.93573c-.10728,0-.21554-.03414-.30625-.10533-.21847-.16873-.25748-.48278-.08778-.70027,1.44053-1.85309,4.266-1.95062,4.38596-1.95452,.12679,.00293,2.94641-.05852,4.48642,1.71167,.18141,.20774,.15898,.52374-.04877,.70417-.20872,.18238-.52277,.15898-.70417-.04877-1.22596-1.40835-3.67691-1.37031-3.70715-1.36836-.02341,.00098-2.47533,.0907-3.62425,1.5683-.09851,.12679-.24578,.19311-.39402,.19311Z" style="fill:#155263;"/></g></g><g><path d="M41.09009,56.76058c-.12094,0-.2409-.04291-.33648-.13069-.20384-.18628-.21847-.50228-.03219-.70515,.41548-.45449,.90411-.70125,1.41615-.7149,.474-.04096,1.01139,.20481,1.45126,.63688,.19604,.19311,.19896,.50911,.00585,.70612-.19116,.19701-.50716,.20091-.70612,.00585-.16678-.16385-.41548-.34916-.72465-.35111-.29552,.0078-.54617,.21652-.70515,.39012-.09851,.10826-.2331,.16288-.36867,.16288Z" style="fill:#155263;"/><path d="M37.17617,56.86787c-.12094,0-.2409-.04291-.33648-.13069-.20384-.18628-.21847-.50228-.03219-.70515,.41548-.45449,.90509-.70125,1.41615-.7149,.50228-.02731,1.01237,.20579,1.45028,.63688,.19701,.19311,.19896,.50911,.00585,.70612s-.50911,.19896-.70612,.00585c-.16678-.16385-.41451-.33453-.72368-.35111-.29552,.0078-.54617,.21652-.70515,.39012-.09851,.10826-.2331,.16288-.36867,.16288Z" style="fill:#155263;"/></g></g><g><path d="M48.42733,63.41024c-.2331,0-.46717-.00975-.7032-.03121-1.43858-.12972-2.80206-.66321-3.94317-1.54099-.21847-.16873-.25943-.4818-.09168-.70027s.48278-.25846,.70027-.09168c.99091,.76269,2.17494,1.22499,3.42431,1.33812,3.27021,.29552,6.21564-1.80725,6.99784-5.00041l.69637-2.84497c.27601-1.13038,.07315-2.28612-.56958-3.2546-.61835-.92947-1.5917-1.57122-2.6821-1.77116l-.03901,.00975c-.46522,.12386-1.88722,.49643-3.27606,.37257-1.39469-.12581-2.72111-.74806-3.15707-.95288l-.03609-.01658c-1.1967,.00098-2.32611,.51984-3.11221,1.43468-.17848,.20969-.49448,.2331-.70417,.05267-.20872-.17946-.2331-.49448-.05267-.70417,1.00262-1.16549,2.42754-1.81212,3.98609-1.78091,.11314,.00195,.18043,.03414,.34331,.11021,.39695,.18628,1.60341,.75196,2.82254,.86217,1.21621,.11606,2.50752-.23017,2.9308-.34233,.17458-.04779,.24675-.06632,.36184-.04681,1.39957,.22335,2.65674,1.03285,3.44577,2.22078,.79975,1.20353,1.05138,2.63918,.70807,4.0446l-.69637,2.84497c-.84267,3.44577-3.87295,5.78846-7.35383,5.78846Z" style="fill:#155263;"/><path d="M51.88773,62.47101c-.03023,0-.06047-.00293-.0907-.0078-.27211-.04974-.45157-.31015-.40183-.58128l1.32544-7.22118c.04974-.27211,.31502-.44864,.58128-.40183,.27211,.04974,.45157,.31015,.40183,.58128l-1.32544,7.22118c-.04486,.2409-.25456,.40963-.49058,.40963Z" style="fill:#155263;"/><path d="M49.27195,51.51537c-.15605,0-.31405-.00683-.47498-.02146-2.0696-.18628-3.58328-1.52441-3.44674-3.04491,.02536-.27504,.26626-.46912,.54227-.45254,.27504,.02438,.47693,.26723,.45254,.54227-.08388,.93044,1.07967,1.8287,2.54165,1.96037,1.46296,.12484,2.76793-.54325,2.8518-1.47369,.02438-.27504,.26723-.46912,.54227-.45254,.27504,.02438,.47693,.26723,.45254,.54227-.12679,1.40249-1.60731,2.40023-3.46137,2.40023Z" style="fill:#155263;"/></g><g><g><path d="M31.13219,63.41121c-4.14018,0-7.74297-2.78743-8.74559-6.88568l-.83779-3.42236c-.4067-1.66095-.11021-3.35994,.83584-4.78389,.93435-1.40542,2.42169-2.36415,4.08167-2.62943,.11801-.0156,.18531,0,.38525,.05364,.51204,.13654,2.07741,.553,3.56475,.41743,1.48637-.13459,2.94836-.82121,3.42918-1.04651,.19214-.0907,.25651-.12094,.37452-.12289,2.66259-.04877,5.09794,1.68338,5.89964,4.23967,.08193,.26333-.06437,.54325-.3277,.62615-.26138,.08388-.54227-.06437-.62615-.3277-.65736-2.09789-2.62748-3.54037-4.8151-3.54037h-.01756l-.0634,.02926c-.51984,.24383-2.10179,.98701-3.76372,1.13721-1.66193,.15312-3.35506-.29844-3.91099-.44669l-.06437-.01658c-1.3469,.2409-2.55141,1.0309-3.3141,2.17981-.78902,1.18793-1.03773,2.60602-.69832,3.99291l.83779,3.42236c.9519,3.88856,4.53323,6.44776,8.52322,6.0908,1.52148-.13752,2.96396-.70125,4.17139-1.62974,.21749-.16678,.53154-.12777,.70027,.09168,.16775,.21847,.12679,.53154-.09168,.70027-1.35763,1.04456-2.97957,1.67851-4.69026,1.8326-.28089,.02536-.5608,.03804-.83681,.03804Z" style="fill:#155263;"/><path d="M26.97054,62.28083c-.23602,0-.44572-.16873-.49058-.40963l-1.59365-8.68512c-.04974-.27114,.12972-.53154,.40183-.58128,.26333-.04486,.53057,.12972,.58128,.40183l1.59365,8.68512c.04974,.27114-.12972,.53154-.40183,.58128-.03023,.00488-.06047,.0078-.0907,.0078Z" style="fill:#155263;"/><path d="M30.1403,49.10246c-2.15738,0-3.94025-1.18305-4.08557-2.79426-.02438-.27504,.17751-.51789,.45254-.54227,.26821-.02146,.51789,.17751,.54227,.45254,.10533,1.1733,1.72435,2.03254,3.53939,1.86479,.92654-.0829,1.76823-.4067,2.37098-.91094,.55105-.46035,.82706-1.01335,.7783-1.55757-.02438-.27504,.17751-.51789,.45254-.54227,.26919-.02243,.51789,.17751,.54227,.45254,.079,.87973-.32283,1.73702-1.13233,2.41389-.75781,.63298-1.79554,1.03773-2.92202,1.13916-.18141,.01658-.36086,.02438-.53837,.02438Z" style="fill:#155263;"/></g><g><path d="M29.87404,45.94636c-1.16647,0-2.28515-.40378-3.19218-1.15964-1.02407-.85535-1.6551-2.0579-1.77506-3.38725-.02438-.27504,.17751-.51691,.45254-.54227,.27211-.01853,.51691,.17653,.54227,.45254,.09558,1.06309,.60079,2.02572,1.42005,2.70941,.82023,.68467,1.85601,1.00262,2.92105,.91191,1.06309-.09558,2.02572-.59981,2.70941-1.42005,.68467-.81926,1.00847-1.85699,.91289-2.92007-.02438-.27504,.17848-.51789,.45254-.54227,.27016-.01463,.51789,.17751,.54227,.45254,.11899,1.32935-.28577,2.62553-1.14014,3.65058-.85535,1.02407-2.0579,1.65412-3.38725,1.77409-.15312,.01365-.30625,.02048-.4584,.02048Z" style="fill:#155263;"/><g><path d="M34.36143,41.04544c-.25456,0-.47205-.19506-.49643-.45352l-.09656-1.05138c-.00878-.09363,.00975-.18823,.05267-.27211,.0078-.01658,.81633-1.6629,.2526-3.89148-.05462-.21457-.24578-.41743-.50033-.53057-.28479-.12581-.59396-.11996-.84949,.01658-.24188,.12777-.54422,.03901-.67589-.20579-.12972-.24285-.03804-.5452,.20579-.67589,.52667-.28089,1.15574-.29942,1.72337-.04779,.53642,.237,.93435,.68467,1.06406,1.19768,.56763,2.24028-.05267,3.95878-.26626,4.45033l.08485,.91874c.02536,.27504-.17751,.51789-.45157,.54325-.0156,.00098-.03121,.00195-.04681,.00195Z" style="fill:#155263;"/><path d="M25.39932,41.74961c-.03023,0-.06047-.00293-.0907-.00878-.15702-.02828-.29064-.13069-.35989-.27504-.01756-.03706-.44279-.9402-1.08942-3.39797-.28186-1.07381-.23115-1.94379,.15117-2.58554,.18531-.31307,.41646-.51204,.61347-.63688-.04389-.7822,.20579-1.95159,1.40444-2.528,.31112-.15117,.66614-.23602,1.11478-.26723,4.39572-.3082,6.97541,.91386,7.08367,.96556,.24773,.11996,.35111,.41743,.23212,.66516-.11899,.24968-.41451,.35404-.66614,.23505-.02438-.01268-2.47728-1.16062-6.57943-.869-.31893,.02146-.5569,.07607-.75099,.1697-1.06991,.51496-.82121,1.76531-.81048,1.81798,.05559,.26333-.10728,.52569-.36867,.59006-.08778,.02731-.9441,.33941-.4584,2.18957,.26138,.99384,.48473,1.72239,.65638,2.23346,.17946-.52959,.34819-1.34202,.34721-2.52507,0-.19994,.11801-.3794,.3004-.45937,.18238-.07705,.39402-.04194,.54032,.09363,.04877,.04486,1.32447,1.15769,4.04265,.50521,.27114-.07022,.5374,.10143,.60177,.36964s-.10143,.5374-.36964,.60177c-1.97793,.47498-3.35409,.12484-4.14604-.23993-.16288,2.3027-.95483,3.12391-1.05431,3.21852-.09363,.08875-.21749,.13752-.34428,.13752Z" style="fill:#155263;"/></g><path d="M30.01741,44.33125c-.47498,0-.95873-.1697-1.4103-.51204-.22042-.16678-.26333-.47985-.09656-.6993,.16775-.22042,.4818-.26236,.6993-.09656,.59201,.44767,1.20158,.39988,1.71459-.13947,.19214-.19994,.50716-.20579,.70612-.01756,.19994,.19019,.20774,.50619,.01756,.70612-.47888,.50423-1.04748,.75879-1.63072,.75879Z" style="fill:#155263;"/></g></g><path d="M49.4319,48.48704c-2.61773,0-4.7478-1.98768-4.7478-4.42985v-1.24839c0-.27601,.22335-.49936,.49936-.49936s.49936,.22335,.49936,.49936v1.24839c0,1.8921,1.68143,3.43114,3.74909,3.43114,2.06668,0,3.74811-1.53904,3.74811-3.43114v-.61347c0-.27601,.22335-.49936,.49936-.49936s.49936,.22335,.49936,.49936v.61347c0,2.44217-2.1291,4.42985-4.74683,4.42985Z" style="fill:#155263;"/><path d="M54.27626,43.84262c-.02633,0-.05364-.00195-.08095-.00683l-5.25399-.86607c-.1463-.02438-.27406-.11119-.34916-.23895l-.30625-.52081-.42231,.69052c-.07315,.11996-.19409,.20286-.3316,.23017-2.53873,.48863-3.32873-.23993-3.46137-.3911-.11119-.12777-.15117-.30235-.10533-.46522,.03414-.11899,.85242-2.93665,3.45552-4.02802,.25651-.10533,.54715,.01365,.65346,.26723,.10728,.25456-.01268,.54715-.26723,.65346-1.65022,.69149-2.45973,2.29588-2.75037,3.01663,.3043,.09851,.93044,.19994,2.07156,.00488l.73928-1.21036c.0907-.14825,.2526-.23895,.42621-.23895h.0039c.17556,.00195,.33746,.0946,.42621,.24578l.61054,1.03773,4.55079,.75001c.05267-.38915,.0673-.99091-.19506-1.54294-.30527-.64273-1.54977-2.71038-4.66783-2.37195-.26821,.03219-.52081-.16678-.55007-.44279-.03023-.27406,.16873-.52081,.44279-.55007,2.9981-.32575,4.90093,1.30301,5.6763,2.93568,.60567,1.27473,.17848,2.63821,.15995,2.69575-.0673,.20872-.26138,.34623-.47498,.34623Z" style="fill:#155263;"/><path d="M48.47902,39.67708c-.15215,0-.29942-.06925-.395-.19409-.00683-.0078-.76659-.95678-1.94184-.95678-.27601,0-.49936-.22335-.49936-.49936s.22335-.49936,.49936-.49936c.82511,0,1.49027,.31307,1.95744,.63785,.09265-.53057,.25163-1.15477,.52179-1.56537,.15215-.23017,.4623-.29454,.69247-.1424s.29357,.4623,.1424,.69247c-.28186,.42719-.44377,1.4893-.47888,2.05888-.01268,.20677-.15312,.38525-.35209,.44572-.04779,.0156-.09753,.02243-.1463,.02243Z" style="fill:#155263;"/><path d="M49.44946,46.81731c-.39012,0-.78122-.07705-1.14599-.23505l-.28577-.12289c-.25358-.10826-.37062-.40183-.26138-.65541,.10826-.25456,.40378-.37354,.65541-.26138l.28577,.12289c.5491,.23407,1.185,.19896,1.70191-.09753,.23798-.13654,.5452-.05559,.68174,.18433,.13752,.23993,.05462,.54422-.18433,.68174-.44377,.25456-.94507,.3833-1.44736,.3833Z" style="fill:#155263;"/></g><path d="M42.35508,36.10853c-.01888,.15448-.08488,.2934-.18652,.40347l-1.04152,.95154c-.2555,.23342-.65903,.18373-.85026-.1047l-.77781-1.17317c-.07214-.13131-.10273-.28203-.08384-.43652,.04957-.40552,.41856-.69849,.82408-.64892,.1929,.02358,.35912,.12041,.47504,.25912,.1196,.1431,.31961,.16827,.47041,.05854,.14726-.10715,.33349-.16132,.52693-.13767,.40552,.04957,.69307,.4228,.6435,.82832Z" style="fill:#155263;"/><path d="M44.44267,32.19138c.06443,.14167,.08053,.29462,.05118,.44154l-.39269,1.35498c-.09633,.33239-.46659,.50037-.78015,.35393l-1.27537-.5956c-.13002-.07444-.2347-.18711-.29912-.32879-.16912-.37189-.00699-.81427,.36491-.98339,.1769-.08045,.36922-.08448,.54046-.02655,.17666,.05976,.36047-.02304,.43195-.19529,.0698-.16821,.20048-.31152,.37787-.39219,.37189-.16912,.81185-.00054,.98097,.37135Z" style="fill:#155263;"/><path d="M41.67364,30.5881c-.01695,.15471-.0812,.29444-.18146,.40577l-1.02953,.96449c-.25256,.2366-.65668,.19196-.85151-.09406l-.79243-1.16335c-.07378-.1304-.10625-.28072-.0893-.43543,.04449-.40611,.40979-.70368,.8159-.65918,.19318,.02117,.36059,.11591,.47825,.25315,.12138,.14159,.32169,.16426,.47111,.05265,.14591-.10898,.33144-.16548,.52516-.14425,.40611,.04449,.69831,.41409,.65381,.82021Z" style="fill:#155263;"/></g></g></g></svg>