<?xml version="1.0" encoding="UTF-8"?><svg id="uuid-760c4e28-f274-4b8c-96ac-21986b470374" xmlns="http://www.w3.org/2000/svg" width="48" height="48" viewBox="0 0 48 48"><g id="uuid-d0c43eae-5241-4f69-a2fd-c3f5cd6833ab"><g><g><g><g><path d="M29.84455,34.68463c-.93128,0-2.13807-.23916-3.45775-.52806-.50367-.11001-1.02503-.22385-1.18144-.22385-.93463,0-1.69515-.76052-1.69515-1.69515v-1.73246c0-.27073,.21907-.4898,.4898-.4898s.4898,.21907,.4898,.4898v1.73246c0,.39413,.32095,.71556,.71556,.71556,.25064,0,.64955,.08514,1.39094,.24681,1.14461,.25064,3.52567,.77009,4.07095,.35587,.38122-.29082,.61224-.63233,.70599-1.0456,.47114-2.07111,3.07175-4.35746,3.18224-4.45408,.20424-.17698,.51371-.15593,.69069,.04688,.17793,.20376,.15689,.51371-.04688,.69165-.02439,.02105-2.4705,2.17347-2.87038,3.93272-.14493,.63807-.50415,1.17857-1.06808,1.60714-.32812,.25064-.81505,.35013-1.41629,.35013Z" style="fill:#155263;"/><path d="M35.658,30.9949c-.19228,0-.37452-.06696-.53284-.19707-.26116-.21429-.62325-.70982-.75143-2.53221-.0507-.70982-.2846-1.40529-.69643-2.06728-1.0102-1.62532-1.81378-3.90593-1.84726-4.00255-.01244-.03444-.02057-.07079-.02487-.10714-.22672-2.04337,.15067-4.16231,.45392-5.86511,.10092-.56633,.1942-1.08769,.25303-1.54592,.1014-.78348-.21142-1.56409-.49219-2.08068-.23055-.42474-.1765-.93846,.13728-1.30772,.3133-.37022,.81027-.50319,1.26658-.34821,3.15354,1.09821,8.94452,5.25,8.94452,8.74075,0,2.68909-1.30054,4.08865-2.25,5.11129-.53858,.58068-.96381,1.0389-1.05038,1.55644-.30038,1.80517-2.02136,4.478-3.30373,4.63871-.03587,.00478-.07127,.0067-.10619,.0067Zm-2.8852-9.07079c.12484,.3463,.86432,2.35427,1.73677,3.75765,.48932,.78731,.78013,1.65689,.84088,2.51499,.08897,1.2618,.28603,1.68176,.364,1.8023,.62181-.21142,2.10698-2.12659,2.38728-3.81027,.13489-.80835,.70026-1.41773,1.29863-2.06154,.93224-1.00351,1.98836-2.1419,1.98836-4.44547,0-2.89764-5.3758-6.80261-8.28683-7.81473-.10045-.03635-.16741,.02009-.19802,.05548-.03061,.03635-.07462,.11193-.02296,.20759,.50845,.93654,.71126,1.83578,.60316,2.67379-.06122,.47066-.15641,1.00829-.26068,1.59184-.28938,1.62436-.6486,3.6419-.45057,5.52838Z" style="fill:#155263;"/><path d="M24,30.9949c-1.33594,0-2.48294-.95663-3.2095-1.75829-.33339-.3683-.51706-.83705-.51706-1.32207v-1.26467c0-.39892,.20998-.772,.59168-1.04943,.71891-.52232,1.8463-1.14509,3.13489-1.14509s2.41598,.62277,3.13441,1.14509c.38217,.27742,.59216,.65051,.59216,1.04943v1.26467c0,.48501-.18367,.95376-.51706,1.32207-.72656,.80166-1.87357,1.75829-3.2095,1.75829Zm0-5.55995c-1.02551,0-1.95727,.52041-2.55851,.95759-.11767,.0861-.18846,.18176-.18846,.25733v1.26467c0,.24107,.09375,.4764,.26355,.6639,.59359,.65529,1.50622,1.43686,2.48342,1.43686s1.88983-.78157,2.48342-1.43686c.1698-.1875,.26355-.42283,.26355-.6639v-1.26467c0-.07557-.07079-.17124-.18893-.25733-.60077-.43718-1.53253-.95759-2.55804-.95759Z" style="fill:#155263;"/><g><path d="M18.15545,34.68463c-.60172,0-1.08817-.09949-1.41677-.35013-.56393-.42953-.92315-.97003-1.0676-1.60714-.40035-1.75925-2.84646-3.91167-2.87085-3.93272-.20376-.17793-.22481-.48788-.04688-.69165,.17698-.20281,.48645-.22577,.69069-.04688,.11049,.09662,2.7111,2.38297,3.18224,4.45408,.09375,.41327,.32478,.75478,.70599,1.0456,.54624,.41518,2.92682-.10427,4.07095-.35587,.74139-.16167,1.14031-.24681,1.39094-.24681,.39461,0,.71604-.32143,.71604-.71556,0-.27073,.21907-.4898,.4898-.4898s.4898,.21907,.4898,.4898c0,.93463-.76052,1.69515-1.69563,1.69515-.15641,0-.67777,.11384-1.18192,.22385-1.3192,.2889-2.52551,.52806-3.45679,.52806Z" style="fill:#155263;"/><path d="M24.52519,37.00351h-1.05086c-1.31441,0-2.55038-.50989-3.47975-1.43495l-1.03125-1.02647c-.19133-.19133-.19228-.50128-.00143-.6926,.19133-.19133,.50175-.19133,.69308-.00191l1.03077,1.02647c.74474,.74139,1.73485,1.14987,2.78858,1.14987h1.05086c1.05373,0,2.04432-.40848,2.78954-1.14987l1.03029-1.02647c.1918-.19037,.50223-.19037,.69308,.00191,.19085,.19133,.18989,.50128-.00143,.6926l-1.03077,1.02647c-.92985,.92506-2.16582,1.43495-3.48071,1.43495Z" style="fill:#155263;"/><path d="M12.342,30.9949c-.0354,0-.07079-.00191-.10666-.0067-1.28237-.16071-3.00335-2.8345-3.30325-4.63871-.08658-.51754-.5118-.97577-1.05038-1.55644-.94946-1.02264-2.25-2.42219-2.25-5.11129,0-3.49075,5.79098-7.64254,8.94404-8.74075,.45584-.15497,.95376-.022,1.26706,.34821,.31378,.36926,.36783,.88297,.13728,1.30772-.28029,.51658-.59359,1.29719-.49219,2.08068,.05883,.45823,.1521,.97959,.25255,1.54592,.30325,1.70185,.68064,3.82175,.45392,5.86511-.0043,.03635-.01244,.0727-.02439,.10714-.03396,.09662-.83705,2.37723-1.84726,4.00255-.41183,.66199-.64573,1.35746-.69643,2.06728-.12915,1.82334-.49123,2.31888-.75191,2.53316-.15784,.12915-.34008,.19611-.53237,.19611Zm2.61878-19.13935c-.01913,0-.04018,.00287-.06314,.01148-2.91055,1.01212-8.28635,4.91709-8.28635,7.81473,0,2.30357,1.05612,3.44196,1.98836,4.44547,.59837,.64381,1.16374,1.25319,1.29863,2.06154,.27982,1.68367,1.76547,3.59885,2.38728,3.81027,.07797-.12054,.27455-.5405,.364-1.8023,.06075-.8581,.35156-1.72768,.84088-2.51499,.87245-1.40338,1.61145-3.41135,1.73629-3.75765,.19802-1.88648-.16119-3.90497-.45057-5.52934-.10379-.58259-.19898-1.12022-.2602-1.59088-.1081-.83801,.09471-1.73724,.60316-2.67379,.05166-.09566,.00765-.17124-.02296-.20759-.02392-.02774-.06888-.06696-.13536-.06696Zm.74665,10.17857h0Z" style="fill:#155263;"/><path d="M32.45089,12.85332c-.14158,0-.28173-.06122-.37883-.17889-2.65609-3.22864-8.01802-3.26594-8.07207-3.26594-.05357,0-5.42172,.04496-8.07207,3.26594-.17172,.20855-.47975,.24011-.68973,.06696-.20855-.17124-.23868-.48023-.06696-.68878,2.94739-3.58259,8.59008-3.62372,8.82876-3.62372s5.88138,.04114,8.82876,3.62372c.17172,.20855,.14158,.51754-.06696,.68878-.09136,.07557-.20137,.11193-.31091,.11193Z" style="fill:#155263;"/></g></g><g><path d="M26.07063,23.1773c-.11575,0-.23198-.04114-.32573-.12341-.20185-.17985-.22003-.4898-.04018-.69165,.82366-.92602,1.78651-1.43686,2.78524-1.47704,.99825-.04496,1.99984,.39126,2.89573,1.24745,.19515,.18654,.20233,.49649,.01531,.6926-.18702,.1942-.49745,.20185-.6926,.01531-.69834-.66869-1.44978-.9949-2.17921-.97672-.72656,.02966-1.45026,.42666-2.09263,1.14892-.09662,.10906-.23103,.16454-.36591,.16454Z" style="fill:#155263;"/><path d="M17.00175,23.54369c-.11575,0-.23198-.04114-.32573-.12341-.20185-.17985-.22003-.4898-.04018-.69165,.82366-.92602,1.78651-1.43686,2.78524-1.47704,1.00494-.03922,2.00032,.39126,2.89621,1.24745,.19515,.18654,.20233,.49649,.01531,.6926-.18702,.1942-.49697,.20185-.6926,.01531-.69882-.66869-1.4536-1.00638-2.17921-.97672-.72656,.02966-1.45073,.42666-2.09311,1.14892-.09662,.10906-.23103,.16454-.36591,.16454Z" style="fill:#155263;"/></g></g><path d="M31.85156,39.57111c-.0354,0-.07127-.00383-.10762-.01148-.26355-.05931-.43001-.32143-.3707-.58546,.6089-2.72258,.26594-6.87723,.2626-6.91932-.02296-.26881,.17698-.50606,.44627-.52902,.27455-.02487,.50654,.17698,.5295,.44675,.01531,.17602,.35969,4.34407-.28268,7.21588-.0507,.22768-.25303,.38265-.47736,.38265Z" style="fill:#155263;"/><path d="M16.16231,39.57111c-.22433,0-.42666-.15497-.47736-.38265-.64238-2.87181-.29799-7.03986-.28268-7.21588,.02248-.26977,.24825-.47258,.5295-.44675,.26929,.02296,.46923,.2602,.44627,.52902-.00335,.04209-.3463,4.19675,.2626,6.91932,.05931,.26403-.10714,.52615-.3707,.58546-.03635,.00765-.07223,.01148-.10762,.01148Z" style="fill:#155263;"/></g><path d="M24,48C10.76642,48,0,37.23406,0,24S10.76642,0,24,0s24,10.76594,24,24-10.76642,24-24,24ZM24,.97959C11.30644,.97959,.97959,11.30644,.97959,24s10.32685,23.02041,23.02041,23.02041,23.02041-10.32685,23.02041-23.02041S36.69356,.97959,24,.97959Z" style="fill:#155263;"/><path d="M23.92538,41.64987c-7.61767,0-14.50781-4.93431-17.55277-12.57111-.10045-.25159,.022-.53667,.2736-.63712,.25016-.09662,.53571,.02296,.63616,.2736,2.89573,7.26276,9.42857,11.95504,16.64302,11.95504,7.37803,0,13.96779-4.84056,16.7889-12.33099,.09471-.25446,.37739-.38552,.6309-.28603,.25303,.09471,.38122,.37787,.28555,.63042-2.96556,7.87691-9.9155,12.9662-17.70536,12.9662Z" style="fill:#155263;"/></g></g></svg>