<svg width="28" height="27" viewBox="0 0 28 27" fill="none" xmlns="http://www.w3.org/2000/svg">
<g clip-path="url(#clip0_136_42)">
<path d="M26.9036 13.5C26.9036 6.41496 20.9992 0.674561 13.7117 0.674561C6.42431 0.674561 0.519897 6.41496 0.519897 13.5C0.519897 19.9013 5.34397 25.2073 11.6505 26.1702V17.2074H8.29937V13.5H11.6505V10.6742C11.6505 7.46013 13.6187 5.68474 16.6331 5.68474C18.0768 5.68474 19.5864 5.93505 19.5864 5.93505V9.08968H17.9225C16.2842 9.08968 15.773 10.0785 15.773 11.0926V13.5H19.4316L18.8465 17.2074H15.773V26.1702C22.0795 25.2073 26.9036 19.9013 26.9036 13.5Z" fill="#404040"/>
</g>
<defs>
<clipPath id="clip0_136_42">
<rect width="27.2348" height="26.4783" fill="white" transform="translate(0.0943604 0.260864)"/>
</clipPath>
</defs>
</svg>
